<?xml version="1.0" encoding="utf-8"?>
<!-- Generator: Adobe Illustrator 26.1.0, SVG Export Plug-In . SVG Version: 6.00 Build 0)  -->
<svg version="1.1" id="Layer_1" xmlns="http://www.w3.org/2000/svg" xmlns:xlink="http://www.w3.org/1999/xlink" x="0px" y="0px"
	 viewBox="0 0 8657.2 1407.3" style="enable-background:new 0 0 8657.2 1407.3;" xml:space="preserve">
<style type="text/css">
	.st0{fill-rule:evenodd;clip-rule:evenodd;fill:#FFFFFF;}
	.st1{fill:#FFFFFF;}
</style>
<g>
	<path class="st0" d="M2117.3,775.5c6.5-9.7,18.1-22.2,34.6-37.5c16.1-14.7,13.7-24.1-7-28c26.5-22.1,39.1-45.6,37.6-70.6
		c-0.1-24.7,1.8-49.5,5.7-73.9c15.2-51.3-1.3-97.2-49.9-137.6c-22.2-16.3-46.8-20.1-73.9-11.4c-28.4,9.1-56.3,19.7-83.6,31.7
		c-19.4,7.1-33.7,10.2-43,9.2c-10.1-0.8-23.9-1.5-41.7-2c-33.1,5.5-61.9,14.7-86.5,27.3c-29.1,4.2-58.9,7.2-89.5,9.1
		c-27.3,8.3-48.3,19.8-62.8,34.6c-25.4,8.7-53.4,18.4-83.9,29.2c-30.1,10.3-32.9,25.2-8.7,44.8c-6.6,2.2-12.5,4.1-17.8,5.9
		c-7.7,1.5-19.2,4.9-34.2,10c-3.1,7.6-13.6,13.7-31.4,18.2c-26.5-5.4-49.9-12.9-70.2-22.6c-13.7,1-25.5,4.9-35.5,11.7
		c-9.6,6.3-22,8.4-37.6,6.5c-10.2-3.7-19.6-10.2-27.8-19.5s-19.2-10.9-32.8-4.9c-5.2,4.3-8,11.4-8.1,21.1
		c0.1,10.2-3.6,18.3-10.7,24.4c-31.6,10.3-61.5,10.2-89.6-0.4c-22.6-13.2-33.2-28.4-31.4-45.9c0-13.9,5.2-22.1,15.7-24.3
		c10-1.7,22.9-7,38.9-15.7c-5.3-8.4-0.2-14.8,15.2-19.2c15.3-4.8,28.4-7.7,39.7-8.9c23.3-4.7,45-2.9,65.3,5.3c5.5-1.8,10.9-4,16-6.7
		c-23.1-11.4-43.8-22.8-62.2-34.1c-1-17.9-1.3-36.1-1-54.4c-11.3-14.1-15.4-28.8-12.6-44.4c0.4-17.1,1.7-35.1,3.9-54.3
		c26.9-6.5,38.6-16.9,35-31.3c-10.5,6.3-21.8,11.4-33.5,15c-15.1,1.2-30.1,4.2-44.5,8.9c6.6-9.8,16.2-22.8,28.9-39.2
		s11.6-26.9-3.2-31.5c-11.2-1.4-27.2,0.2-48.2,4.8c-21,4.6-37.4,8-49.5,10.2c-32.6-0.1-45.9,8.4-39.8,25.5
		c-15.5,0.6-30.2,1.2-44.1,1.8c-13.6,1-18.8,6.7-15.2,17.3c18.7,14.6,37.3,30.4,55.9,47.2c-21.2,1.7-43.6,0.5-67.7-3.5
		c-24.9,6.9-48,13.8-68.9,20.9c-23.2-0.4-32.3-9.7-27.1-27.9c5.2-18.2,11.1-32,17.9-41.4c-23.9-4-49.6-2.5-76.8,4.5
		c-57.1,19-55.3,26.2,5.3,21.5c-18.6,10.7-45.7,18.6-81.7,23.6c-17,7.4-34.4,13.8-52.2,19.2c-16.2,0.8-29.1,1.1-38.7,1
		c-12.7,8.8-19.8,19.1-21,30.8c-14.5,13.5-28.7,26.9-42.6,40.2c-5.7,7.4-11.7,17.9-18.3,31.4c-2.6,5.9-4.8,12-6.4,18.2
		c-1.6,6.3-1,11,1.8,14.1c12.2-7,21-15.2,26.1-24.5c11.1-11.3,22.8-18.5,35-21.7c29.9-0.5,48.6,8.4,56.2,26.7
		c0.5,7.4,1.6,14.8,3.2,22c10.5,6.6,20.5,11.1,29.8,13.3c9.9,13.1,16,28.7,17.7,45c2.5,32.7,29,57.3,79.7,73.4
		c27.7,7.3,55,14.8,82.3,22.6c20.1,10.5,44.6,16,73.6,16.6c-11-9.9-27.3-13.1-48.9-9.6c-16.3-9.4-32.2-18.4-47.9-27
		c47.7,2.5,91.3,10.5,130.7,24.1c40.4,13.7,86.5,17,138.6,10c33.8-7,66.6-15.2,98.7-24.8c22.5-7,45.6-14.5,69.3-22.3
		c23.7-4,52.1-4.7,85.5-2.4c33.6,2.8,59.8-1,78.6-11.3c-13.4-9.7-8.9-14.7,13.2-14.9s38.6,2.1,49.5,6.9c9.9,8,12,16.6,6.6,25.6
		c-6.1,9.2-6.1,18.1,0.1,26.7c8.8,4,18,7.2,27.4,9.4c0.3,3.7,1,7.3,2.1,10.9c9.3,4.8,20,7.7,31.9,8.9c27.8,3.9,56.6,7.2,86.2,10.2
		c29.4,1.3,59.9-0.7,91.6-5.8s60.4-3,86.2,6.4c26.9,17.6,54,44.5,80.8,80.7c26.6,35.9,63.3,51.8,110.1,47.8
		c12.1-2.3,25.2-6.7,39.2-13.3c-4.7-0.3-9.3-1.3-13.7-2.8C2116.8,822.6,2108.7,802.3,2117.3,775.5z"/>
	<path class="st0" d="M1682,21.6c8.4,8.3,16.6,16.9,24.5,25.9c-7.1,8.7,2.8,19.9,29.9,33.6c26.7,13.2,48.1,22.9,64,29
		c20.9,6.2,40.9,14.8,59.8,25.6c16.9,14,37.3,24.8,60.9,32.1c42.9,21.3,88.7,46,141.5,50.6c28.8,3.9,41.7-1.3,63.6-7.6
		c10.7-18-14.6-25.1-32.7-41.3c0.5-0.6,11.8-0.1,19.8,2.8c5.9,2.4,27.6,3.6,32.7,8.7l-8.5-12.6c3.8-13.4-29.2-34.7-61.1-55
		c-35.9-9.5-48.4-21.9-77.9-30.1c-4.1-1-8-2.4-11.8-4.3c-10.7-4-15.5-8.5-14.3-13.5c-44.6-14.2-92.3-26.2-143.2-35.9
		c-23.7-6.4-47.8-10.9-72.2-13.5c-6.3,0.3-11.3,0.9-15.4,2.2c-8.2,2.9-16.8,4.6-25.5,5.1C1705.8,19,1694.5,18.4,1682,21.6z"/>
	<path class="st0" d="M1153.4,163c-18.1-6-40.1-5.8-65.8,0.7c-26.1,7.1-49.7,6.5-70.5-1.7l10.8,6.8c-18.8,3-39.9,14.4-63,34.4
		c-22.5,19.9-27.5,36.1-15.1,48.9c38-18.7,78.8-31.1,120.8-36.6c18-0.2,37.7,2.1,59,6.6c21,4.1,41.2,2.8,60.4-3.8
		c22.2-8.5,22.1-16.9-0.5-25.1C1179.3,182.4,1167.1,172.4,1153.4,163z"/>
	<path class="st0" d="M1193.3,72.4c8.2-0.9,20.5-0.6,37,0.7c16.5,1.3,25.5,2.1,27.1,2c20.2-5.9,39.8-13.4,58.8-22.4
		c18.3,3.3,36.2-1.4,53.7-14.2c25-3.2,46.5-0.7,64.2,7.4c-21.9,10.9-44.9,19.7-68.6,26.1c16.7,1.8,33.7,4.2,51.1,7.3
		c17.5-6.9,34.3-15.1,50.5-24.7c19.4-7.8,38.2-8.6,56.3-2.6c18.2-5.8,34.9-4.7,50.1,3.1c-2.2,4.8,1,11.2,9.4,19.6
		c11.9-0.6,23.8-2,35.5-4.2c15.8,1.5,35.6,1.7,59.3,0.4c24.7-1,29.5-8.8,14.5-23.4c-16.6-10.5-36.4-15.8-59.2-15.8
		c-23.5,0.2-41.6-7.1-54.2-21.8c5.9-0.2,11.7-1.1,17.4-2.8c4.3-1.8,8.7-3,13.3-3.8c-33.9-6-70.3-5.6-109.2,1.1
		c-40.9,0-81.7,2.6-122.2,7.9c-68.4,8.8-136.1,22.3-202.6,40.5c-7.6,1.7-18.5,4.9-32.7,9.5c-14,4.6-15.8,10.8-5.4,18.5
		C1156.4,81.5,1175.4,78.7,1193.3,72.4z"/>
	<path class="st0" d="M1328,570.7c40.4-10.4,77.2-21.4,110.3-32.9c12.9-3.7,15.9-8.3,9.1-13.8c-16.4,3-41.3,8.7-74.7,17.4
		C1339.4,550.5,1324.5,560.2,1328,570.7z"/>
	<path class="st0" d="M1493.9,524.1c12-4.8,20.2-11.3,24.4-19.6c2.3-4,2.2-7.3-0.4-10.1c-4.6-2.2-10.6,0.6-18.5,8.5
		C1491.9,510.8,1490.1,517.8,1493.9,524.1z"/>
	<path class="st0" d="M1059.6,261c-31.1,16.7-61.8,22.5-92.2,17.5l-35.7,8.1c9.6,12,23.7,15.6,42.3,10.7
		c18.5-4.9,33.2-1.2,43.6,11.1c24.6-7.1,45.4-15.3,62.6-24.4C1066.7,280.9,1059.9,273.2,1059.6,261z"/>
	<path class="st0" d="M1284.3,310c12.5-7.7,25.3-15.3,38.6-22.7c-0.4-3.5-1.7-6.8-3.9-9.6c-13.3,3.9-26.8,6.5-40.6,7.9l-8.9,1
		C1264.6,296.7,1269.6,304.5,1284.3,310z"/>
	<path class="st1" d="M436.1,894c25.6-127.3,73.2-249.2,140.7-360.2c16.9-27.7,34.9-54.7,54.1-80.9l7.2-9.8c2.4-3.3,4.9-6.4,7.4-9.7
		l7.4-9.6l3.7-4.8l3.8-4.7l15.4-18.9l15.9-18.5l4-4.6l4.1-4.5l8.2-9l8.2-9c2.7-3,5.6-5.9,8.4-8.8c5.7-5.8,11.3-11.7,17-17.5l17.5-17
		c5.7-5.8,11.8-11.2,17.8-16.7l9-8.2c3-2.7,6-5.5,9.1-8.1l18.5-15.9c6.1-5.4,12.6-10.3,18.9-15.4l9.5-7.6c3.2-2.5,6.3-5.1,9.6-7.5
		l19.6-14.6c13.3-9.4,26.5-18.9,40.2-27.8c27.2-17.9,55.2-34.6,83.9-50c57.6-30.7,117.7-56.2,179.7-76.3
		c31-10.1,62.4-18.9,94.1-26.3s63.7-13.6,95.9-18.6l12.1-1.8c4-0.6,8.1-1.1,12.1-1.6c8.1-1.1,16.2-2,24.3-2.9
		c16.2-1.7,32.4-3.3,48.7-4.4c32.5-2.3,65.1-3.4,97.8-2.8s65.2,2.7,97.6,5.9c32.4,3.2,64.7,7.8,96.7,13.6s63.9,12.8,95.4,21
		c15.8,4.1,31.4,8.5,47,13.2c15.6,4.7,31.1,9.8,46.5,15.1c15.4,5.3,30.6,11,45.8,16.9l11.3,4.5l5.7,2.3l5.6,2.4l11.3,4.7l11.2,4.9
		l5.6,2.5l5.6,2.5l11.1,5.1l11,5.2l5.5,2.6l5.5,2.7l10.9,5.4l10.9,5.6c7.3,3.7,14.4,7.6,21.6,11.5c57.2,31.3,253.2,200,152.1,121
		c-25.2-19.8-51.3-38.4-78.2-55.9c-26.9-17.4-54.4-33.9-82.7-48.9c-7.1-3.7-14.1-7.5-21.3-11.1l-10.7-5.4l-10.8-5.2l-5.4-2.6
		l-5.4-2.5l-10.9-5.1l-11-4.9l-5.5-2.5l-5.5-2.4l-11-4.7l-11.1-4.6l-5.6-2.3l-5.6-2.2l-11.2-4.4c-15-5.7-30-11.2-45.2-16.4
		c-60.7-20.6-122.9-36.6-186.1-47.7c-63.1-11.3-126.9-17.7-191-19c-31.9-0.6-64,0.5-95.9,2.6c-16,1-31.9,2.6-47.9,4.3
		c-8,0.9-15.9,1.8-23.9,2.9l-11.9,1.6l-11.9,1.7c-63.4,9.4-125.9,23.8-187,43.3s-120.4,44.2-177.2,73.8c-28.4,14.9-56.1,31-83,48.4
		c-13.5,8.6-26.7,17.7-39.8,26.9l-19.4,13.8c-3.3,2.3-6.4,4.8-9.6,7.3l-9.5,7.4c-50.7,39.3-97.5,83.5-140.6,131.1l-16,18l-15.5,18.4
		l-3.9,4.6l-3.8,4.7l-7.5,9.4c-2.5,3.2-5,6.3-7.5,9.4l-7.3,9.6c-19.5,25.6-37.9,52-55.1,79.1l-6.5,10.2l-6.3,10.3
		c-4.2,6.8-8.2,13.8-12.3,20.7l-11.8,21c-2,3.5-3.8,7.1-5.7,10.6l-5.7,10.6c-14.9,28.5-28.6,57.6-41.2,87.4
		c-12.6,29.7-23.7,60-33.7,90.6c-5.1,15.3-9.7,30.8-14.1,46.3C444,862.7,439.9,878.3,436.1,894z"/>
	<path class="st1" d="M2360.3,777v-14.5c19.7,0,29.7-4.8,29.7-14.5V384.5c0-9.7-10-14.5-29.7-14.5v-14.5h282
		c51.2,0,91.7,9.5,121.1,28.4c29.4,18.9,44,51.2,44,96.6c0,45.4-14.7,77.6-44,96.6c-29.4,18.9-69.7,28.4-121.1,28.4h-160.9v142.7
		c0,9.7,8.5,14.5,25.7,14.5v14.5L2360.3,777z M2652.1,531.9c17.6,0,32.8-3.5,45.2-10.4s18.9-20.5,18.9-40.9s-6.2-34-18.9-40.9
		c-12.6-7.1-27.6-10.4-45.2-10.4h-170.7v102.6L2652.1,531.9z"/>
	<path class="st1" d="M2846,762.5c6.2-1,11.8-4.1,15.6-9.1c3.5-4.4,6.6-9.1,9.1-14.1l119.4-260.5c3.3-7.5,5.8-13.5,7.7-18
		c1.9-4.1,2.7-8.7,2.9-13.3c0-3.3-0.6-5.2-2.1-6s-2.7-1.7-4.4-2.9v-14.5h121.1v14.5c-1.7,1-3.3,1.9-5.2,2.5
		c-1.9,0.6-2.9,2.7-2.9,6.4c0.2,4.1,1.5,8.1,3.5,11.6c2.5,4.6,5,9.7,7.7,15.6l129.8,272.5c2.1,4.1,5.2,7.7,8.7,10.4
		c3.1,2.1,6.6,3.7,10.4,4.8v14.5h-113.6v-12c2.9,0,5.8-0.8,8.5-2.5c2.9-1.7,4.4-4.6,4.4-8.7c0-3.1-0.4-6-1.7-8.7
		c-1-2.7-2.5-6.2-3.9-10.4l-21.6-45.6h-171.5l-22.4,43.3c-2.1,4.4-3.9,8.1-5.2,11.6c-1.2,2.9-1.9,6-2.1,9.1c0,4.4,1.2,6.8,3.9,8.1
		c3.5,1.2,7.5,1.7,11.2,1.7v14.5H2846L2846,762.5L2846,762.5z M3113.7,629.6l-64.9-134.4l-56.8,134.6L3113.7,629.6z"/>
	<path class="st1" d="M3353.2,450.8c0-8.1-6.6-12-20.1-12v-14.5h233.1c43.3,0,75.7,7.7,97.5,23.2c21.8,15.6,32.6,42.5,32.6,80.9
		c0,38.6-10.8,65.1-32.6,79.6c-21.8,14.5-54.1,22-97.5,22h-136.2v120.3c0,8.1,5.6,12,16.8,12v14.5h-113.8v-14.5
		c13.3,0,20.1-3.9,20.1-12L3353.2,450.8z M3564.7,571.1c15.6,0,28.4-2.9,38.8-8.5c10.4-5.6,15.6-17,15.6-34
		c0-16.6-5.2-28.2-15.6-34.8c-10.4-6.6-23.4-10-38.8-10h-134.6v87.3L3564.7,571.1z"/>
	<path class="st1" d="M4100.1,498.9c0-10.2-8.3-15.1-24.9-15.1h-195.6v80h123.4c6.8,0.2,13.5-0.4,20.1-2.1c4.4-1.5,6.4-5,6.4-10.8
		h14.5v85h-16c1.7-5.8-0.6-9.5-6.4-10.8c-8.3-1.7-16.6-2.3-24.9-2.1h-117v94.6H4085c5.6,0.2,11.2-1.2,16-4.4
		c3.9-2.5,6.4-6.8,6.4-11.6h14.5V786h-14.5c0-4.8-2.1-7.5-6.4-8.1c-5.4-0.6-10.6-0.8-16-0.8h-294.3v-14.5c2.9,0,5.6-1,8.1-2.7
		c2.9-2.3,4.4-5.6,3.9-9.1V451c0.4-3.5-1.2-7.1-3.9-9.1c-2.3-1.7-5.2-2.7-8.1-2.9v-14.5h284.5c16.6,0,24.9-4.8,24.9-14.5h14.5v89
		L4100.1,498.9z"/>
	<path class="st1" d="M4454.3,424.5c47.5,0,84.6,7.9,111.4,23.6c26.8,15.8,40,42.5,40,80.5c0.2,13.3-2.5,26.3-8.1,38.6
		c-5.2,11-12.4,20.9-21.2,29.2c-8.7,8.1-18.5,14.9-29.2,20.1c-10.6,5-21.6,8.9-32.8,11.6l78.6,114.7c3.7,5.4,8.5,10,14.1,13.3
		c5.2,2.9,10.6,5.2,16.4,6.8v14.5H4501v-14.5c6.8,0,10.4-2.5,10.4-7.3c0-5.4-3.9-13.7-12-24.9l-63.2-94.6h-111.4v114.7
		c-0.2,3.9,1.9,7.5,5.2,9.1c3.1,1.7,6.4,2.7,10,2.7v14.5h-106.6v-14.5c9.5,0,14.5-3.9,14.5-12V450.8c0-8.1-4.8-12-14.5-12v-14.5
		L4454.3,424.5z M4452.7,576.9c52.5,0,78.6-16.6,78.6-49.8c0-13.3-6.2-23.8-18.9-31.7c-12.6-7.7-32.6-11.6-59.7-11.6H4326v92.9
		L4452.7,576.9z"/>
	<path class="st1" d="M4975.3,762.5c3.9,0,7.9-1.2,11.2-3.5c3.3-2.7,5-6.6,4.8-10.8V382.8c0-4.8-1.7-8.1-4.8-10
		c-3.5-1.9-7.3-2.9-11.2-2.7v-14.5h149.9v14.5c-2.9,0-5.8,0.8-8.5,2.5c-2.7,1.2-4.6,4.1-4.4,7.3c0.2,3.7,1.5,7.3,3.1,10.4
		c2.1,4.4,4.6,8.7,7.3,13.7l114.7,208.4l115.5-205.9c3.7-6.8,6.6-12.4,8.5-16.4c1.7-3.3,2.7-7.1,2.7-10.8c0-5.8-3.5-8.7-10.4-8.7
		v-14.5H5502v14.5c-3.9,0-7.9,0.8-11.2,2.7c-3.1,1.9-4.8,5.2-4.8,10v365.4c-0.2,4.1,1.5,8.3,4.8,10.8c3.3,2.5,7.3,3.7,11.2,3.5v14.5
		h-125.9v-14.5c14.5,0,21.6-4.8,21.6-14.5V482.4h-1.7l-161.1,295.1h-2.5l-157.8-295.7h-1.7v266.9c0,9.7,7.5,14.5,22.4,14.5v14.5
		H4975L4975.3,762.5z"/>
	<path class="st1" d="M5584.3,762.5c6.2-0.8,11.8-4.1,15.6-9.1c3.5-4.4,6.6-9.1,9.1-14.1l119.4-260.5c3.1-7.5,5.8-13.5,7.7-18
		c1.9-4.1,2.7-8.7,2.7-13.3c0-3.3-0.6-5.2-2.1-6s-2.7-1.7-4.4-2.9v-14.5h120.9v14.5c-1.7,1-3.3,1.9-5.2,2.5
		c-1.9,0.6-2.7,2.7-2.7,6.4c0.2,4.1,1.5,8.1,3.5,11.6c2.5,4.6,5,9.7,7.7,15.6l129.8,272.5c2.1,4.1,5.2,7.7,8.7,10.4
		c3.1,2.1,6.6,3.7,10.4,4.8v14.5h-113.8v-12c2.9,0,5.8-0.8,8.5-2.5c2.9-1.7,4.4-4.6,4.4-8.7c0-3.1-0.4-6-1.7-8.7
		c-1-2.7-2.5-6.2-3.9-10.4l-21.6-45.6h-171.5l-22.4,43.1c-2.1,4.4-3.9,8.1-5.2,11.6c-1.2,2.9-1.9,6-2.1,9.1c0,4.4,1.2,6.8,3.9,8.1
		c3.5,1.2,7.5,1.7,11.2,1.7V777h-107.4L5584.3,762.5z M5852,629.6L5787.1,495l-56.8,134.6H5852z"/>
	<path class="st1" d="M6106.9,654.5c0,2.3-0.2,4.6-0.4,6.8c-0.2,2.5-0.4,5-0.4,7.7c0,8.1,5,15.3,15.1,22
		c11.4,7.3,23.6,12.9,36.5,16.8c13.9,4.6,28.2,8.1,42.5,10.8c11,2.3,22,3.7,33.2,3.9c7.5,0,16.8-0.6,27.6-1.7c11-1,22-3.3,32.4-6.8
		c10-3.1,19.1-8.1,27.2-14.5c7.5-6,11.6-14.9,11.2-24.5c0-11.8-6.6-20.3-19.7-25.7c-16-6-32.4-10.2-49.4-12.4
		c-19.7-2.9-41.1-5.8-64.1-8.7c-21.8-2.7-43.3-7.5-64.1-14.5c-18.5-5.8-35.3-15.8-49.4-28.8c-13.1-12.4-19.7-30.3-19.7-53.3
		c0-34.2,14.1-61.4,42.5-81.7c28.4-20.3,68.2-30.5,119.4-30.5c25.1,0,46.7,2.1,64.5,6c15.3,3.3,30.5,7.7,45.2,13.3
		c12.2,4.8,22.4,9.1,30.1,13.3c7.7,4.1,13.5,6,17.2,6c3.3,0.2,6.6-0.6,9.5-2.1c2.1-1.2,4.8-2.7,8.1-4.4l8.7,8.7l-40,75.3l-14.5-4.8
		c-0.6-3.3-1-6.4-1.7-9.5s-2.9-6.4-7.3-9.5c-10.8-9.1-27.4-16.8-49.8-23.2c-24.5-6.6-50-10-75.3-9.5c-10.2,0-20.3,0.6-30.5,2.1
		c-8.9,1-17.4,3.3-25.7,6.8c-6.8,2.7-12.9,7.1-17.6,12.4c-4.4,5.4-6.6,12-6.4,18.9c0,11.8,6.6,20.1,19.7,25.3
		c16,5.8,32.6,9.7,49.4,12c19.7,2.9,41.1,5.8,64.1,8.7c21.8,2.7,43.3,7.7,64.1,14.9c18.5,6.2,35.5,16.6,49.4,30.5
		c13.1,13.3,19.7,31.7,19.7,55.4c0,23.4-5.8,42.7-17.2,57.6c-11.4,14.9-26.1,27-42.9,35.3c-17.8,8.7-36.9,14.5-56.4,16.8
		c-19.3,2.5-38.6,3.9-58.1,3.9c-18.2,0-36.3-1.7-54.1-5.2c-16.6-3.1-32.8-7.1-48.9-12c-14.7-4.6-27.2-8.7-37.3-12.9
		c-10.2-3.9-16.4-6-18.5-6c-3.7,0-7.3,1.9-9.5,4.8l-11.2-8.1l36.9-89.8L6106.9,654.5z"/>
	<path class="st1" d="M6613.3,762.5c2.9,0,5.6-1,8.1-2.7c2.9-2.3,4.4-5.6,3.9-9.1V484h-104.1c-4.1,0-8.3,1-12,3.1
		c-3.7,2.1-5.8,6.2-5.6,10.4h-14.5v-92.3h14.5c0,7.5,1.9,12.6,5.6,15.3c3.5,2.5,7.7,3.9,12,3.9h285.3c4.4,0,8.5-1.5,12-3.9
		c3.7-2.7,5.6-7.7,5.6-15.1h14.5v92.1h-14.5c0.2-4.1-1.9-8.3-5.6-10.4c-3.7-2.1-7.9-3.1-12-3.1h-104.3v266.9c0,8.1,4.8,12,14.5,12
		v14.5h-103.5V762.5z"/>
	<path class="st1" d="M7239.1,498.9c0-10.2-8.3-15.1-24.9-15.1h-195.6v80h123.4c6.8,0.2,13.5-0.4,20.1-2.1c4.4-1.5,6.4-5,6.4-10.8
		h14.5v85h-16c1.7-5.8-0.6-9.5-6.4-10.8c-8.3-1.7-16.6-2.3-24.9-2.1h-117v94.6H7224c5.6,0.2,11.2-1.2,16-4.4
		c3.9-2.5,6.4-6.8,6.4-11.6h14.5V786h-14.5c0-4.8-2.1-7.5-6.4-8.1c-5.4-0.6-10.6-0.8-16-0.8h-294.1v-14.5c2.9,0,5.6-1,8.1-2.7
		c2.9-2.3,4.4-5.6,3.9-9.1V451c0.4-3.5-1.2-7.1-3.9-9.1c-2.3-1.7-5.2-2.7-8.1-2.9v-14.5h284.5c16.6,0,24.9-4.8,24.9-14.5h14.3v89
		L7239.1,498.9z"/>
	<path class="st1" d="M7593.3,424.5c47.5,0,84.6,7.9,111.4,23.6c26.8,15.8,40,42.5,40.2,80.5c0.2,13.3-2.5,26.3-8.1,38.6
		c-5.2,11-12.4,20.9-21.2,29.2c-8.7,8.1-18.5,14.9-29.2,20.1c-10.6,5-21.6,8.9-32.8,11.6l78.6,114.7c3.7,5.4,8.5,10,14.1,13.3
		c5.2,2.9,10.6,5.2,16.4,6.8v14.5h-122.6v-14.5c6.8,0,10.4-2.5,10.4-7.3c0-5.4-3.9-13.7-12-24.9l-63.5-94.6h-111.4v114.7
		c-0.2,3.9,1.9,7.5,5.2,9.1c3.1,1.7,6.4,2.7,10,2.7v14.5h-106.8v-14.5c9.5,0,14.3-3.9,14.3-12V451c0-8.1-4.8-12-14.3-12v-14.5
		L7593.3,424.5z M7591.7,576.9c52.5,0,78.6-16.6,78.6-49.8c0-13.3-6.2-23.8-18.9-31.7c-12.6-7.7-32.6-11.6-59.7-11.6H7465v92.9
		L7591.7,576.9z"/>
	<path class="st1" d="M7888.2,654.5c0,2.3-0.2,4.6-0.4,6.8c-0.2,2.5-0.4,5-0.4,7.7c0,8.1,5,15.3,15.1,22
		c11.4,7.3,23.6,12.9,36.5,16.8c13.9,4.6,28.2,8.1,42.5,10.8c11,2.3,22,3.7,33.2,3.9c7.5,0,16.6-0.6,27.6-1.7c11-1,22-3.3,32.4-6.8
		c10-3.1,19.1-8.1,27.2-14.5c7.5-6,11.6-14.9,11.2-24.5c0-11.8-6.6-20.3-19.7-25.7c-16-6-32.4-10.2-49.4-12.4
		c-19.7-2.9-41.1-5.8-64.1-8.7c-21.8-2.7-43.3-7.5-64.1-14.5c-18.5-5.8-35.3-15.8-49.4-28.8c-13.1-12.4-19.7-30.3-19.7-53.3
		c0-34.2,14.1-61.4,42.5-81.7c28.4-20.3,68-30.5,119.4-30.5c25.1,0,46.7,2.1,64.5,6c15.3,3.3,30.5,7.7,45.2,13.3
		c10.2,3.9,20.3,8.3,30.1,13.3c7.7,3.9,13.5,6,17.2,6c3.3,0.2,6.6-0.6,9.5-2.1c2.1-1.2,4.8-2.7,8.1-4.4l8.7,8.7l-40,75.3l-14.5-4.8
		c-0.6-3.3-1-6.4-1.7-9.5c-0.6-3.1-2.9-6.4-7.3-9.5c-10.8-9.1-27.4-16.8-49.8-23.2c-24.5-6.6-50-10-75.3-9.5
		c-10.2,0-20.3,0.6-30.5,2.1c-8.9,1-17.4,3.3-25.7,6.8c-6.8,2.7-12.9,7.1-17.6,12.4c-4.4,5.4-6.6,12-6.4,18.9
		c0,11.8,6.6,20.1,19.7,25.3c16,5.8,32.6,9.7,49.4,12c19.7,2.9,41.1,5.8,64.1,8.7c21.8,2.7,43.3,7.7,64.1,14.9
		c18.7,6.2,35.5,16.6,49.4,30.5c13.1,13.3,19.7,31.7,19.7,55.4c0,23.4-5.8,42.7-17.2,57.6c-11.4,14.9-26.1,27-42.9,35.3
		c-17.8,8.7-36.9,14.5-56.4,16.8c-19.3,2.5-38.6,3.9-58.1,3.9c-18.2,0-36.3-1.7-54.1-5.2c-16.6-3.1-32.8-7.1-48.9-12
		c-14.7-4.6-27.2-8.7-37.3-12.9c-10.2-3.9-16.4-6-18.5-6c-3.7,0-7.3,1.9-9.5,4.8l-11.2-8.1l36.9-89.8L7888.2,654.5z"/>
	<path class="st1" d="M0.3,1021.9c180.4-3.5,360.8-6.2,541.2-8.8s360.8-4.6,541.2-6.7l270.5-2.8l270.4-2.5
		c180.4-1.7,360.8-3.1,541.2-4.1c721.3-4.8,1442.6-7.1,2164.2-6.8c721.3,0,1442.6,2.2,2164.2,6.7c180.4,1.2,360.8,2.6,541.2,4.1
		l270.5,2.5l270.5,2.8l270.5,3.1c90.1,1.2,180.4,2.2,270.5,3.6c180.4,2.6,360.8,5.3,541.2,8.8c-180.4,3.5-360.8,6.4-541.2,8.8
		c-90.1,1.3-180.4,2.5-270.5,3.6l-270.5,3.1l-270.5,2.8l-270.5,2.5c-180.4,1.7-360.8,3.1-541.2,4.1
		c-721.3,4.6-1442.6,6.8-2164.2,6.7c-721.3,0-1442.6-2.3-2164.2-6.8c-180.4-1.2-360.8-2.6-541.2-4.1l-270.4-2.5l-270.4-2.8
		c-180.4-2.1-360.8-4.1-541.2-6.7C361.1,1028.1,180.7,1025.3,0.3,1021.9z"/>
	<path class="st1" d="M1469.2,1406.8h-81.4l1.8-7.6c6.6,0,11.6-1.8,11.6-7.8c0-1.8-0.3-3.5-0.5-5.5l-1.5-7.3
		c-14.4,4.8-29.2,7.6-44.4,7.8c-15.4,0-30.8-2.5-45.1-7.8l-4,7.6c-1.8,2.5-2.8,5.3-2.8,8.3c0,3.5,2.5,4.5,7.6,4.5l-1.8,7.6h-83.7
		l1.8-7.6c9.6,0,13.6-3.5,20.7-14.6l101.8-156c2.3-3,3.5-6.6,4-10.3c0-3.5-2-5.5-6.3-5.5l1.8-7.6h95l-1.8,7.6c-5.5,0-9.3,2-9.3,8.3
		c0,3,0.5,6.1,0.8,9.3l24.7,154.5c1.8,11.6,4.5,14.4,12.6,14.4L1469.2,1406.8z M1381.9,1256.1h-1.5l-47.9,83.4
		c9.8,3.3,19.9,4.8,30.3,4.5c10.3,0,20.7-1.5,30.5-4.8L1381.9,1256.1z"/>
	<path class="st1" d="M1672.8,1411.3c-44.6,0-87.7-2.5-109.9-4.3l1.8-7.6c10.6,0,17.1-4.5,20.2-16.6l37.3-150.5
		c0.8-3,1.3-5.8,1.5-8.8c0-7.6-4-10.3-12.4-10.3l1.8-7.6c22.9-1.8,57-4.5,109.7-4.5c66,0,107.4,28.2,107.4,86.5
		C1829.9,1371,1760.6,1411.3,1672.8,1411.3z M1710.2,1245.7c-10.8,0-21.4,0.5-32.3,1.5l-28.5,116.2c11.3,1.3,22.7,2,34,1.8
		c46.6,0,87-30.8,87-77.9C1770.4,1257.8,1745.2,1245.7,1710.2,1245.7z"/>
	<path class="st1" d="M1950.1,1246l-1.8,6.8c-6.8-0.3-13.1,4.5-14.6,11.1l-31,124.5c-0.3,1.3-0.5,2.8-0.5,4c0,4.5,3.5,7.3,9.6,7.3
		l-1.8,6.8h-75.1l1.8-6.8c8.3,0,12.4-3.8,14.1-11.3l30.8-124c0.5-1.5,0.8-3.3,0.8-4.8c0-4.8-3.5-6.8-8.8-6.8l1.8-6.8L1950.1,1246
		L1950.1,1246z"/>
	<path class="st1" d="M2158.6,1246l-1.8,6.8c-5.8,0-9.8,3.5-14.4,10.1l-82.7,121c-4.3,6.3-6.3,9.8-6.3,11.1c0,2.5,0.5,3.8,4.8,4.5
		l-2,7.3h-77.1l2-6.8c5.3-0.5,7.6-1.8,7.6-5.5c-0.3-3.3-0.8-6.3-1.5-9.6l-20.7-121.5c-1.5-8.6-2.8-10.6-8.8-10.6l1.8-6.8h68.8
		l-1.8,6.8c-6.8,0-8.6,2.8-8.6,6.8c0,1.5,0.3,5.5,0.5,7.6l10.8,90h2l56.5-92.3c1.5-2.3,2.3-5,2.3-7.8c0-3-1.8-4.5-6.3-4.5l1.8-6.8
		L2158.6,1246z"/>
	<path class="st1" d="M2249.9,1246l-1.8,6.8c-6.8-0.3-13.1,4.5-14.6,11.1l-31,124.5c-0.3,1.3-0.5,2.8-0.5,4c0,4.5,3.5,7.3,9.6,7.3
		l-1.8,6.8h-75.1l1.8-6.8c8.3,0,12.4-3.8,14.1-11.3l30.8-124c0.5-1.5,0.8-3.3,0.8-4.8c0-4.8-3.5-6.8-8.8-6.8l1.8-6.8L2249.9,1246
		L2249.9,1246z"/>
	<path class="st1" d="M2417.8,1300.2l-6.6,1.5c-4-14.9-26.2-22.7-53.9-22.7c-26.7,0-33.3,5.5-33.3,9.8c0.3,2.8,2,5.3,4.5,6.3
		c1.8,1,3.5,1.8,5.5,2.5c2,0.8,4.3,1.8,6.8,2.8l28.2,10.8c19.7,7.8,38.3,18.9,38.3,44.6c0,36.3-34,55.2-99.6,55.2
		c-17.1,0-42.1-5.5-45.9-5.5c-4,0-7.8,0.5-11.6,1.8l-5-60.8l7.8-1.8c5.5,17.1,26,28,58.5,28c34.3,0,38.3-7.6,38.3-12.1
		c0-5.3-5-8.3-18.2-13.6l-21.4-8.3c-21.4-8.3-42.4-17.6-42.4-44.4c0-35.3,36.8-53.4,89.7-53.4c16.4,0,39.3,4.5,43.1,4.5
		c4,0,8.1-0.8,11.8-2.3L2417.8,1300.2z"/>
	<path class="st1" d="M2533.2,1246l-1.8,6.8c-6.8-0.3-13.1,4.5-14.6,11.1l-31,124.5c-0.3,1.3-0.5,2.8-0.5,4c0,4.5,3.5,7.3,9.6,7.3
		l-1.8,6.8H2418l1.8-6.8c8.3,0,12.4-3.8,14.1-11.3l30.8-124c0.5-1.5,0.8-3.3,0.8-4.8c0-4.8-3.5-6.8-8.8-6.8l1.8-6.8L2533.2,1246
		L2533.2,1246z"/>
	<path class="st1" d="M2623.2,1411.8c-58,0-88.5-29-88.5-72.1c0-62,59-99.3,116.2-99.3c55,0,89,26.2,89,71.3
		C2740.2,1368.5,2687.5,1411.8,2623.2,1411.8z M2648.4,1281.8c-29,0-61.5,22.7-61.5,56.2c0,21.2,17.9,32.8,39.3,32.8
		c30.3,0,62.3-22.2,62.3-55C2688.3,1292.9,2672.9,1281.8,2648.4,1281.8z"/>
	<path class="st1" d="M2969.4,1246l-1.8,6.8c-7.1-0.3-13.1,4.5-14.6,11.6l-35.8,142.4h-41.3c-0.3-4.8-1.8-9.6-4.3-13.9l-48.1-81.4
		l-19.4,76.4c-0.3,1.5-0.5,2.8-0.5,4.3c0,5.5,4,7.8,9.3,7.8l-1.8,6.8H2742l1.8-6.8c6.8,0.3,12.9-4.8,14.1-11.6l30.8-123.8
		c0.5-1.8,0.8-3.5,0.8-5.5c0-4.3-3.3-6.3-8.8-6.3l1.8-6.8h61c0.3,4.8,1.8,9.6,4.3,13.9l42.9,71.1l15.9-66c0.5-2,0.8-4.3,0.8-6.3
		c0-4.5-2.8-5.8-8.8-5.8l1.8-6.8H2969.4z"/>
	<path class="st1" d="M3137,1411.8c-58,0-88.5-29-88.5-72.1c0-62,59-99.3,116.2-99.3c55,0,89,26.2,89,71.3
		C3254,1368.5,3201.3,1411.8,3137,1411.8z M3162.2,1281.8c-29,0-61.5,22.7-61.5,56.2c0,21.2,17.9,32.8,39.3,32.8
		c30.3,0,62.3-22.2,62.3-55C3202,1292.9,3186.7,1281.8,3162.2,1281.8z"/>
	<path class="st1" d="M3452.6,1294.9l-6.3,1.3c-1.8-7.8-9.3-10.8-17.1-10.8h-79.4l-7.1,30.3h62.8c7.1,0,11.8-2.5,14.4-9.8h6.6
		l-14.9,57h-6.6c0.3-1.3,0.5-2.8,0.5-4c0-4-3.8-6.3-9.8-6.3h-63l-8.6,36c-0.3,1.3-0.5,2.8-0.5,4c0,4.8,3,7.8,9.6,7.8l-1.8,6.8h-75.6
		l1.8-6.8c8.3,0,12.4-4.3,14.1-11.8l30.8-123c0.5-2,0.8-4.3,0.8-6.3c0-3.8-3.8-6.1-9.3-6.1l1.8-6.8h137.6c5,0,10.3-0.8,15.1-2.3
		L3452.6,1294.9z"/>
	<path class="st1" d="M3755.9,1263.6l-7.8,1.5c-3-10.1-9.6-14.1-20.2-14.1h-96l-7.8,32.5h73.1c12.4,0,16.1-4,19.4-12.1h7.8
		l-16.9,66.8h-7.6c0.3-1,0.5-2.3,0.5-3.5c0-6.1-3.8-8.6-14.4-8.6h-72.6l-8.8,35.8h103.1c12.1,0,20.7-5.8,28.2-16.4l6.8,3.5l-28.2,61
		c-5-1.8-10.3-2.8-15.6-2.8h-181.8l1.8-7.6c11.1,0,16.9-4.3,20.2-17.1l38.1-152c0.8-2.5,1.3-5,1.3-7.6c0-6.8-4.5-9.8-12.6-9.8l2-7.6
		h165.6c6.1,0.3,12.1-0.5,17.9-2.3L3755.9,1263.6z"/>
	<path class="st1" d="M4208.2,1205.4l-1.8,7.6c-8.1,0-12.6,2.8-19.4,14.1l-91.8,155.5c-1.8,2.5-5.5,8.8-5.5,12.1c0,2.8,2.3,5,5,5
		c0.3,0,0.5,0,0.8,0l-1.8,7.6H4004l1.8-7.6c8.1,0,11.6-6.6,11.6-13.1c0-1.8,0-3.5-0.3-5.3l-6.1-60.3h-1.8l-38.1,59.2
		c-3.5,5.5-6.1,10.1-6.1,14.6c0,2.8,1.8,4.5,5.8,4.5l-1.8,7.6h-89.5l1.8-7.6c7.8,0,9.8-6.1,9.8-12.4c0-2,0-4-0.3-6.1l-12.9-153
		c-0.8-10.1-4.3-14.9-12.1-14.9l1.8-7.6h88l-1.8,7.6c-8.8,0-14.9,2.3-15.1,9.8c0,2,0,6.6,0.3,10.6l5.8,105.9h0.8l69.6-104.1h38.3
		l10.8,104.1h1l60.5-109.4c2-3.3,3.3-6.8,3.8-10.6c0-4-3.3-6.3-8.3-6.3l1.8-7.6L4208.2,1205.4z"/>
	<path class="st1" d="M4260.6,1411.8c-58,0-88.2-29-88.2-72.1c0-62,59-99.3,116.2-99.3c55,0,89,26.2,89,71.3
		C4377.3,1368.5,4324.6,1411.8,4260.6,1411.8z M4285.5,1281.8c-29,0-61.5,22.7-61.5,56.2c0,21.2,17.9,32.8,39.3,32.8
		c30.3,0,62.3-22.2,62.3-55C4325.6,1292.9,4310,1281.8,4285.5,1281.8z"/>
	<path class="st1" d="M4529.3,1352.6c2.5,14.9,8.1,29,16.1,41.8c2.3,4,5.8,5.8,11.6,5.8l-1.8,6.8h-58.7
		c-7.3-14.6-11.8-30.5-13.6-46.6c-9.6,0.3-19.2,0-28.7-1.3l-6.8,29.7c-0.5,2-0.8,4-0.8,6.1c0,4,3.8,5.3,9.6,5.3l-1.8,6.8h-75.1
		l1.8-6.8c8.3,0,12.4-3.8,14.1-11.3l31-125.3c0.3-1.5,0.5-3,0.5-4.5c0-4.3-3.5-6.1-8.8-6.1l1.8-6.8c18.4-0.8,54.5-2.8,80.7-2.8
		c48.7,0,77.4,16.1,77.4,47.1C4577.5,1322.9,4557.6,1343.3,4529.3,1352.6z M4495.5,1280.8c-6.3,0-17.1,0.3-21.7,0.5l-10.3,40.8
		c6.1,0.5,16.6,0.8,22.4,0.8c28.5,0,40.8-12.9,40.8-26C4526.8,1286.6,4519.7,1280.8,4495.5,1280.8z"/>
	<path class="st1" d="M4757,1357.9l-24.7,51.9c-4.3-1.8-9.1-2.8-13.9-2.8h-143.7l1.8-6.8c7.1,0.5,13.4-4.5,14.4-11.6l31-123.8
		c0.3-1.5,0.5-3.3,0.5-4.8c0-4.5-3.5-6.8-9.3-6.8l1.8-6.8h75.1l-1.8,6.8c-6.8,0-12.9,4.8-14.4,11.6l-26,103.4h83.7
		c7.1,0,13.9-4.5,18.4-12.9L4757,1357.9z"/>
	<path class="st1" d="M4852.8,1410.3c-36.6,0-73.1-2-91-3.5l1.8-6.8c6.8,0.5,12.9-4.5,14.1-11.3l30.5-122.5c0.5-2,0.8-4.3,0.8-6.3
		c0-5.3-3.3-6.8-8.6-6.8l1.8-6.8c18.4-1.5,51.9-3.8,88.2-3.8c57.5,0,86.2,27.7,86.2,69.1C4976.8,1381.1,4927.6,1410.3,4852.8,1410.3
		z M4880.5,1280c-8.1,0-15.9,0.3-23.9,1.3l-22.9,90.8c5.8,0.5,14.9,0.8,25.7,0.8c36.6,0,67.1-21.2,67.1-59.2
		C4926.4,1292.4,4910,1280,4880.5,1280z"/>
	<path class="st1" d="M5171.4,1349.6c-9.6,0-19.2-0.5-28.7-1.5l-8.6,33c-0.8,2.8-1,5.5-1,8.3c0,6.8,4.3,9.8,12.6,9.8l-2,7.6h-91.8
		l2-7.6c10.3,0,16.9-4.5,20.2-17.6l37.8-151.8c0.5-2.3,0.8-4.5,0.8-6.8c0-6.8-3.8-10.3-12.4-10.3l2-7.6c28.2-1.8,67.8-3.5,97.8-3.5
		c62,0,100.6,16.4,100.6,64.3C5300.2,1320.3,5247.8,1349.6,5171.4,1349.6z M5193.3,1246.2c-6.6,0-16.9,0.3-26.5,1.3l-13.4,55.2
		c7.6,0.8,21.7,1.5,26.7,1.5c38.6,0,59-11.6,59-35.3C5239.5,1252.8,5227.1,1246.2,5193.3,1246.2z"/>
	<path class="st1" d="M5527.1,1246l-1.8,6.8c-7.1-0.3-13.4,4.8-14.4,11.8l-22.4,89.7c-2.5,10.1-2.3,13.4-1.3,16.4
		c-21.2,22.7-50.4,40.1-98.8,40.1c-40.6,0-63.5-17.1-78.7-40.1c2.8-3.5,4.5-6.6,6.8-16.4l22.4-89.5c0.5-2,0.8-4.3,0.8-6.3
		c0-3.5-3.5-5.8-9.6-5.8l1.8-6.8h74.6l-1.8,6.8c-7.6,0-12.1,3.8-14.1,11.8l-20.4,81.2c-0.3,2-0.5,3.8-0.5,5.8
		c0,11.8,12.4,19.7,28.5,19.7c18.7,0,39.1-8.8,42.9-24.5l20.4-82.4c0.3-1.5,0.5-3,0.5-4.5c0-5.5-3.8-6.8-9.6-6.8l1.8-6.8
		L5527.1,1246z"/>
	<path class="st1" d="M5694.7,1357.9l-24.7,51.9c-4.3-1.8-9.1-2.8-13.9-2.8h-143.7l1.8-6.8c7.1,0.5,13.4-4.5,14.4-11.6l31-123.8
		c0.3-1.5,0.5-3.3,0.5-4.8c0-4.5-3.5-6.8-9.1-6.8l1.8-6.8h75.1l-1.8,6.8c-6.8,0-12.9,4.8-14.4,11.6l-26,103.4h83.7
		c7.3,0,13.9-4.5,18.4-12.9L5694.7,1357.9z"/>
	<path class="st1" d="M5815,1246l-1.8,6.8c-7.1-0.3-13.1,4.5-14.6,11.1l-31,124.5c-0.3,1.3-0.5,2.8-0.5,4c0,4.5,3.5,7.3,9.6,7.3
		l-1.8,6.8h-75.1l1.8-6.8c8.3,0,12.4-3.8,14.1-11.3l30.8-124c0.5-1.5,0.8-3.3,0.8-4.8c0-4.8-3.5-6.8-8.8-6.8l1.8-6.8L5815,1246
		L5815,1246z"/>
	<path class="st1" d="M5982.6,1300.2l-6.6,1.5c-4-14.9-26.2-22.7-53.9-22.7c-26.7,0-33.3,5.5-33.3,9.8c0.3,2.8,2,5.3,4.5,6.3
		c1.8,1,3.5,1.8,5.5,2.5s4.3,1.8,6.8,2.8l28.2,10.8c19.7,7.8,38.3,18.9,38.3,44.6c0,36.3-34,55.2-99.6,55.2
		c-17.4,0-42.1-5.5-45.9-5.5c-4,0-7.8,0.5-11.6,1.8l-5-60.8l7.8-1.8c5.5,17.1,26,28,58.5,28c34.3,0,38.3-7.6,38.3-12.1
		c0-5.3-5.3-8.3-18.2-13.6l-21.2-8.3c-21.2-8.3-42.4-17.6-42.4-44.4c0-35.3,36.8-53.4,89.7-53.4c16.4,0,39.3,4.5,43.1,4.5
		c4,0,8.1-0.8,11.8-2.3L5982.6,1300.2z"/>
	<path class="st1" d="M6219.9,1246l-1.8,6.8c-7.1-0.3-13.1,4.8-14.4,11.8l-30.8,124c-0.3,1.5-0.5,3-0.5,4.5c0,4.3,2.8,6.6,8.8,6.6
		l-1.8,6.8h-75.1l1.8-6.8c8.1,0,12.9-3.8,14.6-11.3l10.3-42.6H6061l-10.3,42.6c-0.3,1.3-0.5,2.8-0.5,4c0,4.5,3.3,7.3,9.3,7.3
		l-1.8,6.8h-74.9l1.8-6.8c8.1,0,12.4-3.8,14.1-11.3l30.8-124c0.3-1.5,0.5-2.8,0.5-4.3c0-4.5-2.8-7.6-8.6-7.6l1.8-6.8h74.9l-1.8,6.8
		c-7.1,0-13.1,5-14.6,11.8l-10.1,40.3h70.3l10.1-40.3c0.5-1.5,0.8-3.3,0.8-4.8c0-4.5-3.8-6.8-9.6-6.8l1.8-6.8H6219.9z"/>
	<path class="st1" d="M6321.5,1246l-1.8,6.8c-7.1-0.3-13.1,4.5-14.6,11.1l-31,124.5c-0.3,1.3-0.5,2.8-0.5,4c0,4.5,3.5,7.3,9.6,7.3
		l-1.8,6.8h-75.1l1.8-6.8c8.3,0,12.4-3.8,14.1-11.3l30.8-124c0.5-1.5,0.8-3.3,0.8-4.8c0-4.8-3.5-6.8-8.8-6.8l1.8-6.8L6321.5,1246
		L6321.5,1246z"/>
	<path class="st1" d="M6535,1246l-1.8,6.8c-7.1-0.3-13.1,4.8-14.6,11.6l-35.8,142.4h-41.3c-0.3-4.8-1.8-9.6-4.3-13.9l-48.1-81.4
		l-19.2,76.4c-0.3,1.5-0.5,2.8-0.5,4.3c0,5.5,4,7.8,9.1,7.8l-1.8,6.8h-69.1l1.8-6.8c6.8,0.3,12.9-4.8,14.1-11.6l30.8-123.8
		c0.5-1.8,0.8-3.5,0.8-5.5c0-4.3-3-6.3-8.8-6.3l1.8-6.8h61c0.3,4.8,1.8,9.6,4.3,13.9l42.9,71.1l15.9-66c0.5-2,0.8-4.3,0.8-6.3
		c0-4.5-2.8-5.8-8.8-5.8l1.8-6.8H6535z"/>
	<path class="st1" d="M6734.4,1325.9l-1.8,7.1c-7.3-0.5-13.6,4.5-14.9,11.6l-7.6,30.3c-0.8,4-0.8,8.6,1,11.1
		c-25.7,16.6-51.2,26-92.8,26c-50.9,0-81.7-24.5-81.7-69.1c0-60.3,53.9-101.3,120.5-101.3c20.7,0,35.5,4.8,39.1,4.8
		c4,0.3,8.3-0.5,12.1-2l5.5,53.4l-7.3,2.3c-6.3-13.6-14.9-20.7-51.9-20.7c-30.8,0-65.8,27-65.8,57.2c0,25,20.2,36,41.3,36
		c10.8,0,21.4-2.3,31.3-6.6l5.3-21.7c1.8-6.8-1.3-11.8-8.6-11.8l1.8-6.8L6734.4,1325.9z"/>
</g>
</svg>
