<?xml version="1.0" encoding="utf-8"?>
<!-- Generator: Adobe Illustrator 26.1.0, SVG Export Plug-In . SVG Version: 6.00 Build 0)  -->
<svg version="1.1" id="Layer_1" xmlns="http://www.w3.org/2000/svg" xmlns:xlink="http://www.w3.org/1999/xlink" x="0px" y="0px"
	 viewBox="0 0 3114.5 1422.2" style="enable-background:new 0 0 3114.5 1422.2;" xml:space="preserve">
<style type="text/css">
	.st0{fill-rule:evenodd;clip-rule:evenodd;fill:#FFFFFF;}
	.st1{fill:#FFFFFF;}
</style>
<g>
	<path class="st0" d="M2158.4,776.5c6.5-9.7,18.1-22.2,34.6-37.5c16.1-14.7,13.7-24.1-7-28c26.5-22.1,39.1-45.6,37.6-70.6
		c-0.1-24.7,1.8-49.5,5.7-73.9c15.2-51.3-1.3-97.2-49.9-137.6c-22.2-16.3-46.8-20.1-73.9-11.4c-28.4,9.1-56.3,19.7-83.6,31.7
		c-19.4,7.1-33.7,10.2-43,9.2c-10.1-0.8-23.9-1.5-41.7-2c-33.1,5.5-61.9,14.7-86.5,27.3c-29.1,4.2-58.9,7.2-89.5,9.1
		c-27.3,8.3-48.3,19.8-62.8,34.6c-25.4,8.7-53.4,18.4-83.9,29.2c-30.1,10.3-32.9,25.2-8.7,44.8c-6.6,2.2-12.5,4.1-17.8,5.9
		c-7.7,1.5-19.2,4.9-34.2,10c-3.1,7.6-13.6,13.7-31.4,18.2c-26.5-5.4-49.9-12.9-70.2-22.6c-13.7,1-25.5,4.9-35.5,11.7
		c-9.6,6.3-22,8.4-37.6,6.5c-10.2-3.7-19.6-10.2-27.8-19.5s-19.2-10.9-32.8-4.9c-5.2,4.3-8,11.4-8.1,21.1
		c0.1,10.2-3.6,18.3-10.7,24.4c-31.6,10.3-61.5,10.2-89.6-0.4c-22.6-13.2-33.2-28.4-31.4-45.9c0-13.9,5.2-22.1,15.7-24.3
		c10-1.7,22.9-7,38.9-15.7c-5.3-8.4-0.2-14.8,15.2-19.2c15.3-4.8,28.4-7.7,39.7-8.9c23.3-4.7,45-2.9,65.3,5.3c5.5-1.8,10.9-4,16-6.7
		c-23.1-11.4-43.8-22.8-62.2-34.1c-1-17.9-1.3-36.1-1-54.4c-11.3-14.1-15.4-28.8-12.6-44.4c0.4-17.1,1.7-35.1,3.9-54.3
		c26.9-6.5,38.6-16.9,35-31.3c-10.5,6.3-21.8,11.4-33.5,15c-15.1,1.2-30.1,4.2-44.5,8.9c6.6-9.8,16.2-22.8,28.9-39.2
		s11.6-26.9-3.2-31.5c-11.2-1.4-27.2,0.2-48.2,4.8c-21,4.6-37.4,8-49.5,10.2c-32.6-0.1-45.9,8.4-39.8,25.5
		c-15.5,0.6-30.2,1.2-44.1,1.8c-13.6,1-18.8,6.7-15.2,17.3c18.7,14.6,37.3,30.4,55.9,47.2c-21.2,1.7-43.6,0.5-67.7-3.5
		c-24.9,6.9-48,13.8-68.9,20.9c-23.2-0.4-32.3-9.7-27.1-27.9c5.2-18.2,11.1-32,17.9-41.4c-23.9-4-49.6-2.5-76.8,4.5
		c-57.1,19-55.3,26.2,5.3,21.5c-18.6,10.7-45.7,18.6-81.7,23.6c-17,7.4-34.4,13.8-52.2,19.2c-16.2,0.8-29.1,1.1-38.7,1
		c-12.7,8.8-19.8,19.1-21,30.8c-14.5,13.5-28.7,26.9-42.6,40.2c-5.7,7.4-11.7,17.9-18.3,31.4c-2.6,5.9-4.8,12-6.4,18.2
		c-1.6,6.3-1,11,1.8,14.1c12.2-7,21-15.2,26.1-24.5c11.1-11.3,22.8-18.5,35-21.7c29.9-0.5,48.6,8.4,56.2,26.7
		c0.5,7.4,1.6,14.8,3.2,22c10.5,6.6,20.5,11.1,29.8,13.3c9.9,13.1,16,28.7,17.7,45c2.5,32.7,29,57.3,79.7,73.4
		c27.7,7.3,55,14.8,82.3,22.6c20.1,10.5,44.6,16,73.6,16.6c-11-9.9-27.3-13.1-48.9-9.6c-16.3-9.4-32.2-18.4-47.9-27
		c47.7,2.5,91.3,10.5,130.7,24.1c40.4,13.7,86.5,17,138.6,10c33.8-7,66.6-15.2,98.7-24.8c22.5-7,45.6-14.5,69.3-22.3
		c23.7-4,52.1-4.7,85.5-2.4c33.6,2.8,59.8-1,78.6-11.3c-13.4-9.7-8.9-14.7,13.2-14.9s38.6,2.1,49.5,6.9c9.9,8,12,16.6,6.6,25.6
		c-6.1,9.2-6.1,18.1,0.1,26.7c8.8,4,18,7.2,27.4,9.4c0.3,3.7,1,7.3,2.1,10.9c9.3,4.8,20,7.7,31.9,8.9c27.8,3.9,56.6,7.2,86.2,10.2
		c29.4,1.3,59.9-0.7,91.6-5.8s60.4-3,86.2,6.4c26.9,17.6,54,44.5,80.8,80.7c26.6,35.9,63.3,51.8,110.1,47.8
		c12.1-2.3,25.2-6.7,39.2-13.3c-4.7-0.3-9.3-1.3-13.7-2.8C2157.9,823.6,2149.8,803.3,2158.4,776.5z"/>
	<path class="st0" d="M1723.1,22.6c8.4,8.3,16.6,16.9,24.5,25.9c-7.1,8.7,2.8,19.9,29.9,33.6c26.7,13.2,48.1,22.9,64,29
		c20.9,6.2,40.9,14.8,59.8,25.6c16.9,14,37.3,24.8,60.9,32.1c42.9,21.3,88.7,46,141.5,50.6c28.8,3.9,41.7-1.3,63.6-7.6
		c10.7-18-14.6-25.1-32.7-41.3c0.5-0.6,11.8-0.1,19.8,2.8c5.9,2.4,27.6,3.6,32.7,8.7l-8.5-12.6c3.8-13.4-29.2-34.7-61.1-55
		c-35.9-9.5-48.4-21.9-77.9-30.1c-4.1-1-8-2.4-11.8-4.3c-10.7-4-15.5-8.5-14.3-13.5c-44.6-14.2-92.3-26.2-143.2-35.9
		c-23.7-6.4-47.8-10.9-72.2-13.5c-6.3,0.3-11.3,0.9-15.4,2.2c-8.2,2.9-16.8,4.6-25.5,5.1C1746.9,20,1735.6,19.4,1723.1,22.6z"/>
	<path class="st0" d="M1194.5,164c-18.1-6-40.1-5.8-65.8,0.7c-26.1,7.1-49.7,6.5-70.5-1.7l10.8,6.8c-18.8,3-39.9,14.4-63,34.4
		c-22.5,19.9-27.5,36.1-15.1,48.9c38-18.7,78.8-31.1,120.8-36.6c18-0.2,37.7,2.1,59,6.6c21,4.1,41.2,2.8,60.4-3.8
		c22.2-8.5,22.1-16.9-0.5-25.1C1220.4,183.4,1208.2,173.4,1194.5,164z"/>
	<path class="st0" d="M1234.4,73.4c8.2-0.9,20.5-0.6,37,0.7c16.5,1.3,25.5,2.1,27.1,2c20.2-5.9,39.8-13.4,58.8-22.4
		c18.3,3.3,36.2-1.4,53.7-14.2c25-3.2,46.5-0.7,64.2,7.4c-21.9,10.9-44.9,19.7-68.6,26.1c16.7,1.8,33.7,4.2,51.1,7.3
		c17.5-6.9,34.3-15.1,50.5-24.7c19.4-7.8,38.2-8.6,56.3-2.6c18.2-5.8,34.9-4.7,50.1,3.1c-2.2,4.8,1,11.2,9.4,19.6
		c11.9-0.6,23.8-2,35.5-4.2c15.8,1.5,35.6,1.7,59.3,0.4c24.7-1,29.5-8.8,14.5-23.4c-16.6-10.5-36.4-15.8-59.2-15.8
		c-23.5,0.2-41.6-7.1-54.2-21.8c5.9-0.2,11.7-1.1,17.4-2.8c4.3-1.8,8.7-3,13.3-3.8c-33.9-6-70.3-5.6-109.2,1.1
		c-40.9,0-81.7,2.6-122.2,7.9c-68.4,8.8-136.1,22.3-202.6,40.5c-7.6,1.7-18.5,4.9-32.7,9.5c-14,4.6-15.8,10.8-5.4,18.5
		C1197.5,82.5,1216.5,79.7,1234.4,73.4z"/>
	<path class="st0" d="M1369.1,571.7c40.4-10.4,77.2-21.4,110.3-32.9c12.9-3.7,15.9-8.3,9.1-13.8c-16.4,3-41.3,8.7-74.7,17.4
		C1380.5,551.5,1365.6,561.2,1369.1,571.7z"/>
	<path class="st0" d="M1535,525.1c12-4.8,20.2-11.3,24.4-19.6c2.3-4,2.2-7.3-0.4-10.1c-4.6-2.2-10.6,0.6-18.5,8.5
		C1533,511.8,1531.2,518.8,1535,525.1z"/>
	<path class="st0" d="M1100.7,262c-31.1,16.7-61.8,22.5-92.2,17.5l-35.7,8.1c9.6,12,23.7,15.6,42.3,10.7
		c18.5-4.9,33.2-1.2,43.6,11.1c24.6-7.1,45.4-15.3,62.6-24.4C1107.8,281.9,1101,274.2,1100.7,262z"/>
	<path class="st0" d="M1325.4,311c12.5-7.7,25.3-15.3,38.6-22.7c-0.4-3.5-1.7-6.8-3.9-9.6c-13.3,3.9-26.8,6.5-40.6,7.9l-8.9,1
		C1305.7,297.7,1310.7,305.5,1325.4,311z"/>
	<path class="st1" d="M477.2,895c25.6-127.3,73.2-249.2,140.7-360.2c16.9-27.7,34.9-54.7,54.1-80.9l7.2-9.8c2.4-3.3,4.9-6.4,7.4-9.7
		l7.4-9.6l3.7-4.8l3.8-4.7l15.4-18.9l15.9-18.5l4-4.6l4.1-4.5l8.2-9l8.2-9c2.7-3,5.6-5.9,8.4-8.8c5.7-5.8,11.3-11.7,17-17.5l17.5-17
		c5.7-5.8,11.8-11.2,17.8-16.7l9-8.2c3-2.7,6-5.5,9.1-8.1l18.5-15.9c6.1-5.4,12.6-10.3,18.9-15.4l9.5-7.6c3.2-2.5,6.3-5.1,9.6-7.5
		l19.6-14.6c13.3-9.4,26.5-18.9,40.2-27.8c27.2-17.9,55.2-34.6,83.9-50C1093.9,105,1154,79.5,1216,59.4c31-10.1,62.4-18.9,94.1-26.3
		s63.7-13.6,95.9-18.6l12.1-1.8c4-0.6,8.1-1.1,12.1-1.6c8.1-1.1,16.2-2,24.3-2.9c16.2-1.7,32.4-3.3,48.7-4.4
		c32.5-2.3,65.1-3.4,97.8-2.8s65.2,2.7,97.6,5.9c32.4,3.2,64.7,7.8,96.7,13.6s63.9,12.8,95.4,21c15.8,4.1,31.4,8.5,47,13.2
		c15.6,4.7,31.1,9.8,46.5,15.1c15.4,5.3,30.6,11,45.8,16.9l11.3,4.5l5.7,2.3l5.6,2.4l11.3,4.7l11.2,4.9l5.6,2.5l5.6,2.5l11.1,5.1
		l11,5.2l5.5,2.6l5.5,2.7l10.9,5.4l10.9,5.6c7.3,3.7,14.4,7.6,21.6,11.5c57.2,31.3,111.5,67.5,162.4,108.2
		c101.6,81.4,188.3,181,255.6,292c16.8,27.8,32.5,56.2,46.8,85.3s27.5,58.7,39.4,88.8s22.5,60.7,31.9,91.7s17.4,62.3,24.1,93.9
		c-3.9-15.7-8.2-31.3-12.7-46.8s-9.4-30.9-14.5-46.2c-10.2-30.6-21.7-60.8-34.2-90.5c-12.7-29.6-26.4-58.8-41.4-87.3
		s-31-56.4-48.3-83.6c-68.8-108.6-155.9-205.5-257-284.5c-25.2-19.8-51.3-38.4-78.2-55.9c-26.9-17.4-54.4-33.9-82.7-48.9
		c-7.1-3.7-14.1-7.5-21.3-11.1l-10.7-5.4l-10.8-5.2l-5.4-2.6l-5.4-2.5l-10.9-5.1l-11-4.9l-5.5-2.5l-5.5-2.4l-11-4.7l-11.1-4.6
		l-5.6-2.3l-5.6-2.2l-11.2-4.4c-15-5.7-30-11.2-45.2-16.4c-60.7-20.6-122.9-36.6-186.1-47.7c-63.1-11.3-126.9-17.7-191-19
		c-31.9-0.6-64,0.5-95.9,2.6c-16,1-31.9,2.6-47.9,4.3c-8,0.9-15.9,1.8-23.9,2.9l-11.9,1.6l-11.9,1.7c-63.4,9.4-125.9,23.8-187,43.3
		S1101.8,122.4,1045,152c-28.4,14.9-56.1,31-83,48.4c-13.5,8.6-26.7,17.7-39.8,26.9l-19.4,13.8c-3.3,2.3-6.4,4.8-9.6,7.3l-9.5,7.4
		c-50.7,39.3-97.5,83.5-140.6,131.1l-16,18l-15.5,18.4l-3.9,4.6l-3.8,4.7l-7.5,9.4c-2.5,3.2-5,6.3-7.5,9.4l-7.3,9.6
		c-19.5,25.6-37.9,52-55.1,79.1l-6.5,10.2l-6.3,10.3c-4.2,6.8-8.2,13.8-12.3,20.7l-11.8,21c-2,3.5-3.8,7.1-5.7,10.6l-5.7,10.6
		c-14.9,28.5-28.6,57.6-41.2,87.4c-12.6,29.7-23.7,60-33.7,90.6c-5.1,15.3-9.7,30.8-14.1,46.3C485.1,863.7,481,879.3,477.2,895z"/>
	<path class="st1" d="M179.2,1166.1v-7c9.5,0,14.3-2.3,14.3-7V976.8c0-4.7-4.8-7-14.3-7v-7h136c24.7,0,44.2,4.6,58.4,13.7
		c14.2,9.1,21.2,24.7,21.2,46.6c0,21.9-7.1,37.4-21.2,46.6c-14.2,9.1-33.6,13.7-58.4,13.7h-77.6v68.8c0,4.7,4.1,7,12.4,7v7
		L179.2,1166.1z M319.9,1047.9c8.5,0,15.8-1.7,21.8-5s9.1-9.9,9.1-19.7s-3-16.4-9.1-19.7c-6.1-3.4-13.3-5-21.8-5h-82.3v49.5
		L319.9,1047.9z"/>
	<path class="st1" d="M413.4,1159.1c3-0.5,5.7-2,7.5-4.4c1.7-2.1,3.2-4.4,4.4-6.8l57.6-125.6c1.6-3.6,2.8-6.5,3.7-8.7
		c0.9-2,1.3-4.2,1.4-6.4c0-1.6-0.3-2.5-1-2.9s-1.3-0.8-2.1-1.4v-7h58.4v7c-0.8,0.5-1.6,0.9-2.5,1.2s-1.4,1.3-1.4,3.1
		c0.1,2,0.7,3.9,1.7,5.6c1.2,2.2,2.4,4.7,3.7,7.5l62.6,131.4c1,2,2.5,3.7,4.2,5c1.5,1,3.2,1.8,5,2.3v7h-54.8v-5.8
		c1.4,0,2.8-0.4,4.1-1.2c1.4-0.8,2.1-2.2,2.1-4.2c0-1.5-0.2-2.9-0.8-4.2c-0.5-1.3-1.2-3-1.9-5l-10.4-22h-82.7l-10.8,20.9
		c-1,2.1-1.9,3.9-2.5,5.6c-0.6,1.4-0.9,2.9-1,4.4c0,2.1,0.6,3.3,1.9,3.9c1.7,0.6,3.6,0.8,5.4,0.8v7h-51.8L413.4,1159.1L413.4,1159.1
		z M542.5,1095l-31.3-64.8l-27.4,64.9L542.5,1095z"/>
	<path class="st1" d="M658,1008.8c0-3.9-3.2-5.8-9.7-5.8v-7h112.4c20.9,0,36.5,3.7,47,11.2s15.7,20.5,15.7,39
		c0,18.6-5.2,31.4-15.7,38.4s-26.1,10.6-47,10.6H695v58c0,3.9,2.7,5.8,8.1,5.8v7h-54.9v-7c6.4,0,9.7-1.9,9.7-5.8L658,1008.8z
		 M760,1066.8c7.5,0,13.7-1.4,18.7-4.1s7.5-8.2,7.5-16.4c0-8-2.5-13.6-7.5-16.8c-5-3.2-11.3-4.8-18.7-4.8h-64.9v42.1L760,1066.8z"/>
	<path class="st1" d="M1018.2,1032c0-4.9-4-7.3-12-7.3h-94.3v38.6h59.5c3.3,0.1,6.5-0.2,9.7-1c2.1-0.7,3.1-2.4,3.1-5.2h7v41h-7.7
		c0.8-2.8-0.3-4.6-3.1-5.2c-4-0.8-8-1.1-12-1H912v45.6h98.9c2.7,0.1,5.4-0.6,7.7-2.1c1.9-1.2,3.1-3.3,3.1-5.6h7v40.6h-7
		c0-2.3-1-3.6-3.1-3.9c-2.6-0.3-5.1-0.4-7.7-0.4H869v-7c1.4,0,2.7-0.5,3.9-1.3c1.4-1.1,2.1-2.7,1.9-4.4v-144.5
		c0.2-1.7-0.6-3.4-1.9-4.4c-1.1-0.8-2.5-1.3-3.9-1.4v-7h137.2c8,0,12-2.3,12-7h7v42.9L1018.2,1032z"/>
	<path class="st1" d="M1189,996.1c22.9,0,40.8,3.8,53.7,11.4c12.9,7.6,19.3,20.5,19.3,38.8c0.1,6.4-1.2,12.7-3.9,18.6
		c-2.5,5.3-6,10.1-10.2,14.1c-4.2,3.9-8.9,7.2-14.1,9.7c-5.1,2.4-10.4,4.3-15.8,5.6l37.9,55.3c1.8,2.6,4.1,4.8,6.8,6.4
		c2.5,1.4,5.1,2.5,7.9,3.3v7h-59.1v-7c3.3,0,5-1.2,5-3.5c0-2.6-1.9-6.6-5.8-12l-30.5-45.6h-53.7v55.3c-0.1,1.9,0.9,3.6,2.5,4.4
		c1.5,0.8,3.1,1.3,4.8,1.3v7h-51.4v-7c4.6,0,7-1.9,7-5.8v-144.6c0-3.9-2.3-5.8-7-5.8v-7L1189,996.1z M1188.2,1069.6
		c25.3,0,37.9-8,37.9-24c0-6.4-3-11.5-9.1-15.3c-6.1-3.7-15.7-5.6-28.8-5.6h-61.1v44.8L1188.2,1069.6z"/>
	<path class="st1" d="M1440.2,1159.1c1.9,0,3.8-0.6,5.4-1.7c1.6-1.3,2.4-3.2,2.3-5.2V976c0-2.3-0.8-3.9-2.3-4.8
		c-1.7-0.9-3.5-1.4-5.4-1.3v-7h72.3v7c-1.4,0-2.8,0.4-4.1,1.2c-1.3,0.6-2.2,2-2.1,3.5c0.1,1.8,0.7,3.5,1.5,5c1,2.1,2.2,4.2,3.5,6.6
		l55.3,100.5l55.7-99.3c1.8-3.3,3.2-6,4.1-7.9c0.8-1.6,1.3-3.4,1.3-5.2c0-2.8-1.7-4.2-5-4.2v-7h71.5v7c-1.9,0-3.8,0.4-5.4,1.3
		c-1.5,0.9-2.3,2.5-2.3,4.8v176.2c-0.1,2,0.7,4,2.3,5.2c1.6,1.2,3.5,1.8,5.4,1.7v7h-60.7v-7c7,0,10.4-2.3,10.4-7V1024h-0.8
		l-77.7,142.3h-1.2l-76.1-142.6h-0.8v128.7c0,4.7,3.6,7,10.8,7v7h-58L1440.2,1159.1z"/>
	<path class="st1" d="M1733.9,1159.1c3-0.4,5.7-2,7.5-4.4c1.7-2.1,3.2-4.4,4.4-6.8l57.6-125.6c1.5-3.6,2.8-6.5,3.7-8.7
		c0.9-2,1.3-4.2,1.3-6.4c0-1.6-0.3-2.5-1-2.9s-1.3-0.8-2.1-1.4v-7h58.3v7c-0.8,0.5-1.6,0.9-2.5,1.2s-1.3,1.3-1.3,3.1
		c0.1,2,0.7,3.9,1.7,5.6c1.2,2.2,2.4,4.7,3.7,7.5l62.6,131.4c1,2,2.5,3.7,4.2,5c1.5,1,3.2,1.8,5,2.3v7h-54.9v-5.8
		c1.4,0,2.8-0.4,4.1-1.2c1.4-0.8,2.1-2.2,2.1-4.2c0-1.5-0.2-2.9-0.8-4.2c-0.5-1.3-1.2-3-1.9-5l-10.4-22h-82.7l-10.8,20.8
		c-1,2.1-1.9,3.9-2.5,5.6c-0.6,1.4-0.9,2.9-1,4.4c0,2.1,0.6,3.3,1.9,3.9c1.7,0.6,3.6,0.8,5.4,0.8v7h-51.8L1733.9,1159.1z M1863,1095
		l-31.3-64.9l-27.4,64.9H1863z"/>
	<path class="st1" d="M1985.9,1107c0,1.1-0.1,2.2-0.2,3.3c-0.1,1.2-0.2,2.4-0.2,3.7c0,3.9,2.4,7.4,7.3,10.6
		c5.5,3.5,11.4,6.2,17.6,8.1c6.7,2.2,13.6,3.9,20.5,5.2c5.3,1.1,10.6,1.8,16,1.9c3.6,0,8.1-0.3,13.3-0.8c5.3-0.5,10.6-1.6,15.6-3.3
		c4.8-1.5,9.2-3.9,13.1-7c3.6-2.9,5.6-7.2,5.4-11.8c0-5.7-3.2-9.8-9.5-12.4c-7.7-2.9-15.6-4.9-23.8-6c-9.5-1.4-19.8-2.8-30.9-4.2
		c-10.5-1.3-20.9-3.6-30.9-7c-8.9-2.8-17-7.6-23.8-13.9c-6.3-6-9.5-14.6-9.5-25.7c0-16.5,6.8-29.6,20.5-39.4
		c13.7-9.8,32.9-14.7,57.6-14.7c12.1,0,22.5,1,31.1,2.9c7.4,1.6,14.7,3.7,21.8,6.4c5.9,2.3,10.8,4.4,14.5,6.4s6.5,2.9,8.3,2.9
		c1.6,0.1,3.2-0.3,4.6-1c1-0.6,2.3-1.3,3.9-2.1l4.2,4.2l-19.3,36.3l-7-2.3c-0.3-1.6-0.5-3.1-0.8-4.6s-1.4-3.1-3.5-4.6
		c-5.2-4.4-13.2-8.1-24-11.2c-11.8-3.2-24.1-4.8-36.3-4.6c-4.9,0-9.8,0.3-14.7,1c-4.3,0.5-8.4,1.6-12.4,3.3c-3.3,1.3-6.2,3.4-8.5,6
		c-2.1,2.6-3.2,5.8-3.1,9.1c0,5.7,3.2,9.7,9.5,12.2c7.7,2.8,15.7,4.7,23.8,5.8c9.5,1.4,19.8,2.8,30.9,4.2
		c10.5,1.3,20.9,3.7,30.9,7.2c8.9,3,17.1,8,23.8,14.7c6.3,6.4,9.5,15.3,9.5,26.7c0,11.3-2.8,20.6-8.3,27.8c-5.5,7.2-12.6,13-20.7,17
		c-8.6,4.2-17.8,7-27.2,8.1c-9.3,1.2-18.6,1.9-28,1.9c-8.8,0-17.5-0.8-26.1-2.5c-8-1.5-15.8-3.4-23.6-5.8c-7.1-2.2-13.1-4.2-18-6.2
		c-4.9-1.9-7.9-2.9-8.9-2.9c-1.8,0-3.5,0.9-4.6,2.3l-5.4-3.9l17.8-43.3L1985.9,1107z"/>
	<path class="st1" d="M2230.1,1159.1c1.4,0,2.7-0.5,3.9-1.3c1.4-1.1,2.1-2.7,1.9-4.4v-128.6h-50.2c-2,0-4,0.5-5.8,1.5s-2.8,3-2.7,5
		h-7v-44.5h7c0,3.6,0.9,6.1,2.7,7.4c1.7,1.2,3.7,1.9,5.8,1.9h137.6c2.1,0,4.1-0.7,5.8-1.9c1.8-1.3,2.7-3.7,2.7-7.3h7v44.4h-7
		c0.1-2-0.9-4-2.7-5s-3.8-1.5-5.8-1.5H2273v128.7c0,3.9,2.3,5.8,7,5.8v7h-49.9V1159.1z"/>
	<path class="st1" d="M2531.9,1032c0-4.9-4-7.3-12-7.3h-94.3v38.6h59.5c3.3,0.1,6.5-0.2,9.7-1c2.1-0.7,3.1-2.4,3.1-5.2h7v41h-7.7
		c0.8-2.8-0.3-4.6-3.1-5.2c-4-0.8-8-1.1-12-1h-56.4v45.6h98.9c2.7,0.1,5.4-0.6,7.7-2.1c1.9-1.2,3.1-3.3,3.1-5.6h7v40.6h-7
		c0-2.3-1-3.6-3.1-3.9c-2.6-0.3-5.1-0.4-7.7-0.4h-141.8v-7c1.4,0,2.7-0.5,3.9-1.3c1.4-1.1,2.1-2.7,1.9-4.4v-144.5
		c0.2-1.7-0.6-3.4-1.9-4.4c-1.1-0.8-2.5-1.3-3.9-1.4v-7H2520c8,0,12-2.3,12-7h6.9v42.9L2531.9,1032z"/>
	<path class="st1" d="M2702.7,996.1c22.9,0,40.8,3.8,53.7,11.4c12.9,7.6,19.3,20.5,19.4,38.8c0.1,6.4-1.2,12.7-3.9,18.6
		c-2.5,5.3-6,10.1-10.2,14.1c-4.2,3.9-8.9,7.2-14.1,9.7c-5.1,2.4-10.4,4.3-15.8,5.6l37.9,55.3c1.8,2.6,4.1,4.8,6.8,6.4
		c2.5,1.4,5.1,2.5,7.9,3.3v7h-59.1v-7c3.3,0,5-1.2,5-3.5c0-2.6-1.9-6.6-5.8-12l-30.6-45.6h-53.7v55.3c-0.1,1.9,0.9,3.6,2.5,4.4
		c1.5,0.8,3.1,1.3,4.8,1.3v7H2596v-7c4.6,0,6.9-1.9,6.9-5.8v-144.5c0-3.9-2.3-5.8-6.9-5.8v-7L2702.7,996.1z M2701.9,1069.6
		c25.3,0,37.9-8,37.9-24c0-6.4-3-11.5-9.1-15.3c-6.1-3.7-15.7-5.6-28.8-5.6h-61.1v44.8L2701.9,1069.6z"/>
	<path class="st1" d="M2844.9,1107c0,1.1-0.1,2.2-0.2,3.3c-0.1,1.2-0.2,2.4-0.2,3.7c0,3.9,2.4,7.4,7.3,10.6
		c5.5,3.5,11.4,6.2,17.6,8.1c6.7,2.2,13.6,3.9,20.5,5.2c5.3,1.1,10.6,1.8,16,1.9c3.6,0,8-0.3,13.3-0.8s10.6-1.6,15.6-3.3
		c4.8-1.5,9.2-3.9,13.1-7c3.6-2.9,5.6-7.2,5.4-11.8c0-5.7-3.2-9.8-9.5-12.4c-7.7-2.9-15.6-4.9-23.8-6c-9.5-1.4-19.8-2.8-30.9-4.2
		c-10.5-1.3-20.9-3.6-30.9-7c-8.9-2.8-17-7.6-23.8-13.9c-6.3-6-9.5-14.6-9.5-25.7c0-16.5,6.8-29.6,20.5-39.4s32.8-14.7,57.6-14.7
		c12.1,0,22.5,1,31.1,2.9c7.4,1.6,14.7,3.7,21.8,6.4c4.9,1.9,9.8,4,14.5,6.4c3.7,1.9,6.5,2.9,8.3,2.9c1.6,0.1,3.2-0.3,4.6-1
		c1-0.6,2.3-1.3,3.9-2.1l4.2,4.2l-19.3,36.3l-7-2.3c-0.3-1.6-0.5-3.1-0.8-4.6s-1.4-3.1-3.5-4.6c-5.2-4.4-13.2-8.1-24-11.2
		c-11.8-3.2-24.1-4.8-36.3-4.6c-4.9,0-9.8,0.3-14.7,1c-4.3,0.5-8.4,1.6-12.4,3.3c-3.3,1.3-6.2,3.4-8.5,6c-2.1,2.6-3.2,5.8-3.1,9.1
		c0,5.7,3.2,9.7,9.5,12.2c7.7,2.8,15.7,4.7,23.8,5.8c9.5,1.4,19.8,2.8,30.9,4.2c10.5,1.3,20.9,3.7,30.9,7.2c9,3,17.1,8,23.8,14.7
		c6.3,6.4,9.5,15.3,9.5,26.7c0,11.3-2.8,20.6-8.3,27.8c-5.5,7.2-12.6,13-20.7,17c-8.6,4.2-17.8,7-27.2,8.1c-9.3,1.2-18.6,1.9-28,1.9
		c-8.8,0-17.5-0.8-26.1-2.5c-8-1.5-15.8-3.4-23.6-5.8c-7.1-2.2-13.1-4.2-18-6.2c-4.9-1.9-7.9-2.9-8.9-2.9c-1.8,0-3.5,0.9-4.6,2.3
		l-5.4-3.9l17.8-43.3L2844.9,1107z"/>
	<path class="st1" d="M0,1260.4c64.9-2.7,129.8-4.8,194.7-6.8s129.8-3.6,194.7-5.2l97.3-2.2l97.3-1.9c64.9-1.3,129.8-2.4,194.7-3.2
		c259.5-3.7,519-5.5,778.6-5.3c259.5,0,519,1.7,778.6,5.2c64.9,0.9,129.8,2,194.7,3.2l97.3,1.9l97.3,2.2l97.3,2.4
		c32.4,0.9,64.9,1.7,97.3,2.8c64.9,2,129.8,4.1,194.7,6.8c-64.9,2.7-129.8,5-194.7,6.8c-32.4,1-64.9,1.9-97.3,2.8l-97.3,2.4
		l-97.3,2.2l-97.3,1.9c-64.9,1.3-129.8,2.4-194.7,3.2c-259.5,3.6-519,5.3-778.6,5.2c-259.5,0-519-1.8-778.6-5.3
		c-64.9-0.9-129.8-2-194.7-3.2l-97.3-1.9l-97.3-2.2c-64.9-1.6-129.8-3.2-194.7-5.2C129.8,1265.2,64.9,1263,0,1260.4z"/>
	<path class="st1" d="M574.3,1420.2H542l0.7-3c2.6,0,4.6-0.7,4.6-3.1c0-0.7-0.1-1.4-0.2-2.2l-0.6-2.9c-5.7,1.9-11.6,3-17.6,3.1
		c-6.1,0-12.2-1-17.9-3.1l-1.6,3c-0.7,1-1.1,2.1-1.1,3.3c0,1.4,1,1.8,3,1.8l-0.7,3h-33.2l0.7-3c3.8,0,5.4-1.4,8.2-5.8l40.4-61.9
		c0.9-1.2,1.4-2.6,1.6-4.1c0-1.4-0.8-2.2-2.5-2.2l0.7-3h37.7l-0.7,3c-2.2,0-3.7,0.8-3.7,3.3c0,1.2,0.2,2.4,0.3,3.7l9.8,61.3
		c0.7,4.6,1.8,5.7,5,5.7L574.3,1420.2z M539.7,1360.4h-0.6l-19,33.1c3.9,1.3,7.9,1.9,12,1.8c4.1,0,8.2-0.6,12.1-1.9L539.7,1360.4z"
		/>
	<path class="st1" d="M655.1,1422c-17.7,0-34.8-1-43.6-1.7l0.7-3c4.2,0,6.8-1.8,8-6.6L635,1351c0.3-1.2,0.5-2.3,0.6-3.5
		c0-3-1.6-4.1-4.9-4.1l0.7-3c9.1-0.7,22.6-1.8,43.5-1.8c26.2,0,42.6,11.2,42.6,34.3C717.4,1406,689.9,1422,655.1,1422z
		 M669.9,1356.3c-4.3,0-8.5,0.2-12.8,0.6l-11.3,46.1c4.5,0.5,9,0.8,13.5,0.7c18.5,0,34.5-12.2,34.5-30.9
		C693.8,1361.1,683.8,1356.3,669.9,1356.3z"/>
	<path class="st1" d="M765.1,1356.4l-0.7,2.7c-2.7-0.1-5.2,1.8-5.8,4.4l-12.3,49.4c-0.1,0.5-0.2,1.1-0.2,1.6c0,1.8,1.4,2.9,3.8,2.9
		l-0.7,2.7h-29.8l0.7-2.7c3.3,0,4.9-1.5,5.6-4.5l12.2-49.2c0.2-0.6,0.3-1.3,0.3-1.9c0-1.9-1.4-2.7-3.5-2.7l0.7-2.7L765.1,1356.4
		L765.1,1356.4z"/>
	<path class="st1" d="M847.8,1356.4l-0.7,2.7c-2.3,0-3.9,1.4-5.7,4l-32.8,48c-1.7,2.5-2.5,3.9-2.5,4.4c0,1,0.2,1.5,1.9,1.8l-0.8,2.9
		h-30.6l0.8-2.7c2.1-0.2,3-0.7,3-2.2c-0.1-1.3-0.3-2.5-0.6-3.8l-8.2-48.2c-0.6-3.4-1.1-4.2-3.5-4.2l0.7-2.7h27.3l-0.7,2.7
		c-2.7,0-3.4,1.1-3.4,2.7c0,0.6,0.1,2.2,0.2,3l4.3,35.7h0.8l22.4-36.6c0.6-0.9,0.9-2,0.9-3.1c0-1.2-0.7-1.8-2.5-1.8l0.7-2.7
		L847.8,1356.4z"/>
	<path class="st1" d="M884,1356.4l-0.7,2.7c-2.7-0.1-5.2,1.8-5.8,4.4l-12.3,49.4c-0.1,0.5-0.2,1.1-0.2,1.6c0,1.8,1.4,2.9,3.8,2.9
		l-0.7,2.7h-29.8l0.7-2.7c3.3,0,4.9-1.5,5.6-4.5l12.2-49.2c0.2-0.6,0.3-1.3,0.3-1.9c0-1.9-1.4-2.7-3.5-2.7l0.7-2.7L884,1356.4
		L884,1356.4z"/>
	<path class="st1" d="M950.6,1377.9l-2.6,0.6c-1.6-5.9-10.4-9-21.4-9c-10.6,0-13.2,2.2-13.2,3.9c0.1,1.1,0.8,2.1,1.8,2.5
		c0.7,0.4,1.4,0.7,2.2,1s1.7,0.7,2.7,1.1l11.2,4.3c7.8,3.1,15.2,7.5,15.2,17.7c0,14.4-13.5,21.9-39.5,21.9c-6.8,0-16.7-2.2-18.2-2.2
		c-1.6,0-3.1,0.2-4.6,0.7l-2-24.1l3.1-0.7c2.2,6.8,10.3,11.1,23.2,11.1c13.6,0,15.2-3,15.2-4.8c0-2.1-2-3.3-7.2-5.4l-8.5-3.3
		c-8.5-3.3-16.8-7-16.8-17.6c0-14,14.6-21.2,35.6-21.2c6.5,0,15.6,1.8,17.1,1.8c1.6,0,3.2-0.3,4.7-0.9L950.6,1377.9z"/>
	<path class="st1" d="M996.4,1356.4l-0.7,2.7c-2.7-0.1-5.2,1.8-5.8,4.4l-12.3,49.4c-0.1,0.5-0.2,1.1-0.2,1.6c0,1.8,1.4,2.9,3.8,2.9
		l-0.7,2.7h-29.8l0.7-2.7c3.3,0,4.9-1.5,5.6-4.5l12.2-49.2c0.2-0.6,0.3-1.3,0.3-1.9c0-1.9-1.4-2.7-3.5-2.7l0.7-2.7L996.4,1356.4
		L996.4,1356.4z"/>
	<path class="st1" d="M1032.1,1422.2c-23,0-35.1-11.5-35.1-28.6c0-24.6,23.4-39.4,46.1-39.4c21.8,0,35.3,10.4,35.3,28.3
		C1078.5,1405,1057.6,1422.2,1032.1,1422.2z M1042.1,1370.6c-11.5,0-24.4,9-24.4,22.3c0,8.4,7.1,13,15.6,13c12,0,24.7-8.8,24.7-21.8
		C1057.9,1375,1051.8,1370.6,1042.1,1370.6z"/>
	<path class="st1" d="M1169.4,1356.4l-0.7,2.7c-2.8-0.1-5.2,1.8-5.8,4.6l-14.2,56.5h-16.4c-0.1-1.9-0.7-3.8-1.7-5.5l-19.1-32.3
		l-7.7,30.3c-0.1,0.6-0.2,1.1-0.2,1.7c0,2.2,1.6,3.1,3.7,3.1l-0.7,2.7h-27.4l0.7-2.7c2.7,0.1,5.1-1.9,5.6-4.6l12.2-49.1
		c0.2-0.7,0.3-1.4,0.3-2.2c0-1.7-1.3-2.5-3.5-2.5l0.7-2.7h24.2c0.1,1.9,0.7,3.8,1.7,5.5l17,28.2l6.3-26.2c0.2-0.8,0.3-1.7,0.3-2.5
		c0-1.8-1.1-2.3-3.5-2.3l0.7-2.7H1169.4z"/>
	<path class="st1" d="M1235.9,1422.2c-23,0-35.1-11.5-35.1-28.6c0-24.6,23.4-39.4,46.1-39.4c21.8,0,35.3,10.4,35.3,28.3
		C1282.3,1405,1261.4,1422.2,1235.9,1422.2z M1245.9,1370.6c-11.5,0-24.4,9-24.4,22.3c0,8.4,7.1,13,15.6,13c12,0,24.7-8.8,24.7-21.8
		C1261.7,1375,1255.6,1370.6,1245.9,1370.6z"/>
	<path class="st1" d="M1361.1,1375.8l-2.5,0.5c-0.7-3.1-3.7-4.3-6.8-4.3h-31.5l-2.8,12h24.9c2.8,0,4.7-1,5.7-3.9h2.6l-5.9,22.6h-2.6
		c0.1-0.5,0.2-1.1,0.2-1.6c0-1.6-1.5-2.5-3.9-2.5h-25l-3.4,14.3c-0.1,0.5-0.2,1.1-0.2,1.6c0,1.9,1.2,3.1,3.8,3.1l-0.7,2.7h-30
		l0.7-2.7c3.3,0,4.9-1.7,5.6-4.7l12.2-48.8c0.2-0.8,0.3-1.7,0.3-2.5c0-1.5-1.5-2.4-3.7-2.4l0.7-2.7h54.6c2,0,4.1-0.3,6-0.9
		L1361.1,1375.8z"/>
	<path class="st1" d="M1481.4,1363.4l-3.1,0.6c-1.2-4-3.8-5.6-8-5.6h-38.1l-3.1,12.9h29c4.9,0,6.4-1.6,7.7-4.8h3.1l-6.7,26.5h-3
		c0.1-0.4,0.2-0.9,0.2-1.4c0-2.4-1.5-3.4-5.7-3.4h-28.8l-3.5,14.2h40.9c4.8,0,8.2-2.3,11.2-6.5l2.7,1.4l-11.2,24.2
		c-2-0.7-4.1-1.1-6.2-1.1h-72.1l0.7-3c4.4,0,6.7-1.7,8-6.8l15.1-60.3c0.3-1,0.5-2,0.5-3c0-2.7-1.8-3.9-5-3.9l0.8-3h65.7
		c2.4,0.1,4.8-0.2,7.1-0.9L1481.4,1363.4z"/>
	<path class="st1" d="M1660.8,1340.3l-0.7,3c-3.2,0-5,1.1-7.7,5.6l-36.4,61.7c-0.7,1-2.2,3.5-2.2,4.8c0,1.1,0.9,2,2,2
		c0.1,0,0.2,0,0.3,0l-0.7,3h-35.6l0.7-3c3.2,0,4.6-2.6,4.6-5.2c0-0.7,0-1.4-0.1-2.1l-2.4-23.9h-0.7l-15.1,23.5
		c-1.4,2.2-2.4,4-2.4,5.8c0,1.1,0.7,1.8,2.3,1.8l-0.7,3h-35.5l0.7-3c3.1,0,3.9-2.4,3.9-4.9c0-0.8,0-1.6-0.1-2.4l-5.1-60.7
		c-0.3-4-1.7-5.9-4.8-5.9l0.7-3h34.9l-0.7,3c-3.5,0-5.9,0.9-6,3.9c0,0.8,0,2.6,0.1,4.2l2.3,42h0.3l27.6-41.3h15.2l4.3,41.3h0.4
		l24-43.4c0.8-1.3,1.3-2.7,1.5-4.2c0-1.6-1.3-2.5-3.3-2.5l0.7-3L1660.8,1340.3z"/>
	<path class="st1" d="M1681.6,1422.2c-23,0-35-11.5-35-28.6c0-24.6,23.4-39.4,46.1-39.4c21.8,0,35.3,10.4,35.3,28.3
		C1727.9,1405,1707,1422.2,1681.6,1422.2z M1691.5,1370.6c-11.5,0-24.4,9-24.4,22.3c0,8.4,7.1,13,15.6,13c12,0,24.7-8.8,24.7-21.8
		C1707.4,1375,1701.2,1370.6,1691.5,1370.6z"/>
	<path class="st1" d="M1788.2,1398.7c1,5.9,3.2,11.5,6.4,16.6c0.9,1.6,2.3,2.3,4.6,2.3l-0.7,2.7h-23.3c-2.9-5.8-4.7-12.1-5.4-18.5
		c-3.8,0.1-7.6,0-11.4-0.5l-2.7,11.8c-0.2,0.8-0.3,1.6-0.3,2.4c0,1.6,1.5,2.1,3.8,2.1l-0.7,2.7h-29.8l0.7-2.7c3.3,0,4.9-1.5,5.6-4.5
		l12.3-49.7c0.1-0.6,0.2-1.2,0.2-1.8c0-1.7-1.4-2.4-3.5-2.4l0.7-2.7c7.3-0.3,21.6-1.1,32-1.1c19.3,0,30.7,6.4,30.7,18.7
		C1807.3,1386.9,1799.4,1395,1788.2,1398.7z M1774.8,1370.2c-2.5,0-6.8,0.1-8.6,0.2l-4.1,16.2c2.4,0.2,6.6,0.3,8.9,0.3
		c11.3,0,16.2-5.1,16.2-10.3C1787.2,1372.5,1784.4,1370.2,1774.8,1370.2z"/>
	<path class="st1" d="M1878.5,1400.8l-9.8,20.6c-1.7-0.7-3.6-1.1-5.5-1.1h-57l0.7-2.7c2.8,0.2,5.3-1.8,5.7-4.6l12.3-49.1
		c0.1-0.6,0.2-1.3,0.2-1.9c0-1.8-1.4-2.7-3.7-2.7l0.7-2.7h29.8l-0.7,2.7c-2.7,0-5.1,1.9-5.7,4.6l-10.3,41h33.2
		c2.8,0,5.5-1.8,7.3-5.1L1878.5,1400.8z"/>
	<path class="st1" d="M1916.5,1421.6c-14.5,0-29-0.8-36.1-1.4l0.7-2.7c2.7,0.2,5.1-1.8,5.6-4.5l12.1-48.6c0.2-0.8,0.3-1.7,0.3-2.5
		c0-2.1-1.3-2.7-3.4-2.7l0.7-2.7c7.3-0.6,20.6-1.5,35-1.5c22.8,0,34.2,11,34.2,27.4C1965.7,1410,1946.2,1421.6,1916.5,1421.6z
		 M1927.5,1369.9c-3.2,0-6.3,0.1-9.5,0.5l-9.1,36c2.3,0.2,5.9,0.3,10.2,0.3c14.5,0,26.6-8.4,26.6-23.5
		C1945.7,1374.8,1939.2,1369.9,1927.5,1369.9z"/>
	<path class="st1" d="M2042.9,1397.5c-3.8,0-7.6-0.2-11.4-0.6l-3.4,13.1c-0.3,1.1-0.4,2.2-0.4,3.3c0,2.7,1.7,3.9,5,3.9l-0.8,3h-36.4
		l0.8-3c4.1,0,6.7-1.8,8-7l15-60.2c0.2-0.9,0.3-1.8,0.3-2.7c0-2.7-1.5-4.1-4.9-4.1l0.8-3c11.2-0.7,26.9-1.4,38.8-1.4
		c24.6,0,39.9,6.5,39.9,25.5C2094,1385.9,2073.2,1397.5,2042.9,1397.5z M2051.6,1356.5c-2.6,0-6.7,0.1-10.5,0.5l-5.3,21.9
		c3,0.3,8.6,0.6,10.6,0.6c15.3,0,23.4-4.6,23.4-14C2069.9,1359.1,2065,1356.5,2051.6,1356.5z"/>
	<path class="st1" d="M2184,1356.4l-0.7,2.7c-2.8-0.1-5.3,1.9-5.7,4.7l-8.9,35.6c-1,4-0.9,5.3-0.5,6.5c-8.4,9-20,15.9-39.2,15.9
		c-16.1,0-25.2-6.8-31.2-15.9c1.1-1.4,1.8-2.6,2.7-6.5l8.9-35.5c0.2-0.8,0.3-1.7,0.3-2.5c0-1.4-1.4-2.3-3.8-2.3l0.7-2.7h29.6
		l-0.7,2.7c-3,0-4.8,1.5-5.6,4.7l-8.1,32.2c-0.1,0.8-0.2,1.5-0.2,2.3c0,4.7,4.9,7.8,11.3,7.8c7.4,0,15.5-3.5,17-9.7l8.1-32.7
		c0.1-0.6,0.2-1.2,0.2-1.8c0-2.2-1.5-2.7-3.8-2.7l0.7-2.7L2184,1356.4z"/>
	<path class="st1" d="M2250.5,1400.8l-9.8,20.6c-1.7-0.7-3.6-1.1-5.5-1.1h-57l0.7-2.7c2.8,0.2,5.3-1.8,5.7-4.6l12.3-49.1
		c0.1-0.6,0.2-1.3,0.2-1.9c0-1.8-1.4-2.7-3.6-2.7l0.7-2.7h29.8l-0.7,2.7c-2.7,0-5.1,1.9-5.7,4.6l-10.3,41h33.2
		c2.9,0,5.5-1.8,7.3-5.1L2250.5,1400.8z"/>
	<path class="st1" d="M2298.2,1356.4l-0.7,2.7c-2.8-0.1-5.2,1.8-5.8,4.4l-12.3,49.4c-0.1,0.5-0.2,1.1-0.2,1.6c0,1.8,1.4,2.9,3.8,2.9
		l-0.7,2.7h-29.8l0.7-2.7c3.3,0,4.9-1.5,5.6-4.5l12.2-49.2c0.2-0.6,0.3-1.3,0.3-1.9c0-1.9-1.4-2.7-3.5-2.7l0.7-2.7L2298.2,1356.4
		L2298.2,1356.4z"/>
	<path class="st1" d="M2364.7,1377.9l-2.6,0.6c-1.6-5.9-10.4-9-21.4-9c-10.6,0-13.2,2.2-13.2,3.9c0.1,1.1,0.8,2.1,1.8,2.5
		c0.7,0.4,1.4,0.7,2.2,1s1.7,0.7,2.7,1.1l11.2,4.3c7.8,3.1,15.2,7.5,15.2,17.7c0,14.4-13.5,21.9-39.5,21.9c-6.9,0-16.7-2.2-18.2-2.2
		c-1.6,0-3.1,0.2-4.6,0.7l-2-24.1l3.1-0.7c2.2,6.8,10.3,11.1,23.2,11.1c13.6,0,15.2-3,15.2-4.8c0-2.1-2.1-3.3-7.2-5.4l-8.4-3.3
		c-8.4-3.3-16.8-7-16.8-17.6c0-14,14.6-21.2,35.6-21.2c6.5,0,15.6,1.8,17.1,1.8c1.6,0,3.2-0.3,4.7-0.9L2364.7,1377.9z"/>
	<path class="st1" d="M2458.8,1356.4l-0.7,2.7c-2.8-0.1-5.2,1.9-5.7,4.7l-12.2,49.2c-0.1,0.6-0.2,1.2-0.2,1.8c0,1.7,1.1,2.6,3.5,2.6
		l-0.7,2.7H2413l0.7-2.7c3.2,0,5.1-1.5,5.8-4.5l4.1-16.9h-27.8l-4.1,16.9c-0.1,0.5-0.2,1.1-0.2,1.6c0,1.8,1.3,2.9,3.7,2.9l-0.7,2.7
		h-29.7l0.7-2.7c3.2,0,4.9-1.5,5.6-4.5l12.2-49.2c0.1-0.6,0.2-1.1,0.2-1.7c0-1.8-1.1-3-3.4-3l0.7-2.7h29.7l-0.7,2.7
		c-2.8,0-5.2,2-5.8,4.7l-4,16h27.9l4-16c0.2-0.6,0.3-1.3,0.3-1.9c0-1.8-1.5-2.7-3.8-2.7l0.7-2.7H2458.8z"/>
	<path class="st1" d="M2499.1,1356.4l-0.7,2.7c-2.8-0.1-5.2,1.8-5.8,4.4l-12.3,49.4c-0.1,0.5-0.2,1.1-0.2,1.6c0,1.8,1.4,2.9,3.8,2.9
		l-0.7,2.7h-29.8l0.7-2.7c3.3,0,4.9-1.5,5.6-4.5l12.2-49.2c0.2-0.6,0.3-1.3,0.3-1.9c0-1.9-1.4-2.7-3.5-2.7l0.7-2.7L2499.1,1356.4
		L2499.1,1356.4z"/>
	<path class="st1" d="M2583.8,1356.4l-0.7,2.7c-2.8-0.1-5.2,1.9-5.8,4.6l-14.2,56.5h-16.4c-0.1-1.9-0.7-3.8-1.7-5.5l-19.1-32.3
		l-7.6,30.3c-0.1,0.6-0.2,1.1-0.2,1.7c0,2.2,1.6,3.1,3.6,3.1l-0.7,2.7h-27.4l0.7-2.7c2.7,0.1,5.1-1.9,5.6-4.6l12.2-49.1
		c0.2-0.7,0.3-1.4,0.3-2.2c0-1.7-1.2-2.5-3.5-2.5l0.7-2.7h24.2c0.1,1.9,0.7,3.8,1.7,5.5l17,28.2l6.3-26.2c0.2-0.8,0.3-1.7,0.3-2.5
		c0-1.8-1.1-2.3-3.5-2.3l0.7-2.7H2583.8z"/>
	<path class="st1" d="M2662.9,1388.1l-0.7,2.8c-2.9-0.2-5.4,1.8-5.9,4.6l-3,12c-0.3,1.6-0.3,3.4,0.4,4.4
		c-10.2,6.6-20.3,10.3-36.8,10.3c-20.2,0-32.4-9.7-32.4-27.4c0-23.9,21.4-40.2,47.8-40.2c8.2,0,14.1,1.9,15.5,1.9
		c1.6,0.1,3.3-0.2,4.8-0.8l2.2,21.2l-2.9,0.9c-2.5-5.4-5.9-8.2-20.6-8.2c-12.2,0-26.1,10.7-26.1,22.7c0,9.9,8,14.3,16.4,14.3
		c4.3,0,8.5-0.9,12.4-2.6l2.1-8.6c0.7-2.7-0.5-4.7-3.4-4.7l0.7-2.7L2662.9,1388.1z"/>
</g>
</svg>
